<svg xmlns="http://www.w3.org/2000/svg" version="1.1" xmlns:xlink="http://www.w3.org/1999/xlink" xmlns:svgjs="http://svgjs.dev/svgjs" width="512" height="512"><svg xmlns="http://www.w3.org/2000/svg" xmlns:xlink="http://www.w3.org/1999/xlink" version="1.1" viewBox="0 0 512 512">
  <!-- Generator: Adobe Illustrator 29.3.0, SVG Export Plug-In . SVG Version: 2.1.0 Build 146)  -->
  <defs>
    <style>
      .st0, .st1, .st2, .st3, .st4, .st5, .st6, .st7 {
        fill: none;
      }

      .st8 {
        stroke-width: 3px;
      }

      .st8, .st9, .st10, .st11, .st1, .st2, .st3, .st12 {
        stroke: #fff;
      }

      .st8, .st1 {
        stroke-linejoin: round;
      }

      .st8, .st1, .st12 {
        stroke-linecap: round;
      }

      .st8, .st13, .st12 {
        fill: #080204;
      }

      .st9, .st10, .st11, .st1 {
        stroke-width: 4px;
      }

      .st9, .st10, .st11, .st12 {
        stroke-miterlimit: 10;
      }

      .st9, .st14 {
        fill: #fff;
      }

      .st15, .st10 {
        fill: #241a16;
      }

      .st11, .st16 {
        fill: #000100;
      }

      .st2, .st4, .st6 {
        stroke-width: 1.08px;
      }

      .st3, .st5, .st7 {
        stroke-width: 1.28px;
      }

      .st4, .st5 {
        stroke: #241a16;
      }

      .st17 {
        display: none;
      }

      .st6, .st7 {
        stroke: #000100;
      }

      .st18 {
        clip-path: url(#clippath);
      }

      .st12 {
        stroke-width: 5px;
      }
    </style>
    <clipPath id="SvgjsClipPath1036">
      <rect class="st0" x="9.16" y="24.7" width="1682.61" height="462.6"></rect>
    </clipPath>
  </defs>
  <g id="SvgjsG1035" class="st17">
    <g id="SvgjsG1034">
      <g>
        <g class="st18">
          <path class="st14" d="M170.45,118.17c9.95-8.38,12.63-8.88,15.3-24.19,2.68-15.32-.84-15.26-1.75-19.78-.92-4.53,9.18.43,12.19,1.08,3.02.64,8.3-4.45,5.3,4.54-2.98,8.99-1.22,8.94-5.02,17.04-3.78,8.1-7.66,25.86-15.33,29.43l-10.68-8.12Z"></path>
          <path class="st7" d="M170.45,118.17c9.95-8.38,12.63-8.88,15.3-24.19,2.68-15.32-.84-15.26-1.75-19.78-.92-4.53,9.18.43,12.19,1.08,3.02.64,8.3-4.45,5.3,4.54-2.98,8.99-1.22,8.94-5.02,17.04-3.78,8.1-7.66,25.86-15.33,29.43l-10.68-8.12Z"></path>
          <path class="st15" d="M145.64,101.88s-4.69,2.63-7.03,7.72c-2.33,5.1-3.12,8.61-3.3,12.35-.2,3.95-5.41,6.9-5.85,9.83-1.07,7.13,1.56,6.9-.17,12.23-1.75,5.33-15.81,24.36-18.99,35.11-2.7,9.16-21.12,38.15-25.27,46.34-3.85,7.61-12.1,24.11-12.91,30.21-.8,6.09-9.27,23.83-11.97,30.97-2.7,7.13-3.6,15.11-2.28,19.61,1.32,4.49-2.61,13.49-3.84,18.18-1.25,4.7-.16,6.88-.89,10.95-.72,4.08-5.11,14.25-5.53,18.58-.41,4.34,1.75,14.12,2.08,20.09.33,5.98-2.62,19.15-2.77,23.16-.17,4.02.76,4.49.81,7.93.07,3.42-.41,5.47.73,9.08,1.14,3.59.86,4.7,2.55,8.87,1.95,4.81,1.34,4.72,3.02,9.99,1.69,5.27,1.33,7.3,5.96,10.54,4.62,3.25,13,4.09,17.18,5.67,4.16,1.58,6.74,4.46,11.44,5.68,4.7,1.24,5.99,2.53,10.23,2.1,4.23-.44,7.98-3.11,13.08-3.64,5.08-.52,16.52,4.95,23.16,4.28,6.52-.68,10.51-7.75,16.1-9.15,5.57-1.44,11.59.08,20.23-2.09,6.34-1.6,40.61-29.34,42.69-34.12,2.07-4.8.78-7.66,3.1-11.47,1.89-3.09,10.55-11.38,13.33-15.09,2.75-3.72,2.49-9.12,4.38-13.03,1.88-3.92,9.5-21.57,12.13-26.69,2.62-5.14,3.19-10.62,3.18-16.33-.02-5.72-1.13-9.6-.64-15.95.48-6.34-.69-16.38-2.57-20.76-1.88-4.38-2.75-7.28-8.54-14.29-5.05-6.1-3.63-19.33-3.66-27.91-.03-8.57-4.95-16.21-5.87-22.41-.93-6.19-4.22-33.25-9.34-40.78-5.73-8.41-9.4-10.76-11.94-15.92-2.53-5.18-1.4-8.15-3.15-13.98-1.74-5.83.32-8.03-2.62-14.31-2.92-6.27-6.87-8.43-9.22-11.92-2.36-3.47-1.72-5.54-5.97-7.96-4.25-2.42-11.99-5.34-15.73-8.39-3.75-3.05-9.06-10.23-11.96-12.06-6.28-3.94-13.33-1.2-13.33-1.2"></path>
          <path class="st14" d="M136.82,150.67c-5.68,0-4.77,5.45-8.65,8.66-3.25,2.68-3.81-4.01-7.11,1.31-4.57,7.42-8.49,13.85-10.31,20.02-2.68,9.01-20.81,37.57-24.89,45.64-3.79,7.49-11.93,23.75-12.72,29.74-.79,6-9.14,23.47-11.8,30.49-2.66,7.03-3.54,14.89-2.24,19.33,1.31,4.43-2.58,13.26-3.79,17.9-1.22,4.63-.14,6.77-.86,10.78-.71,4.01-5.03,14.03-5.44,18.3-.4,4.26,1.71,13.9,2.02,19.78.33,5.87-2.56,18.83-2.71,22.79-.16,3.97.73,4.44.8,7.8.06,3.37-.41,5.39.72,8.94,1.13,3.54.83,4.62,2.51,8.76,1.91,4.72,1.32,4.65,2.98,9.82,1.67,5.18,1.3,7.18,5.86,10.39,4.55,3.18,12.8,4.02,16.91,5.57,4.1,1.55,6.65,4.39,11.28,5.6,4.63,1.22,5.89,2.49,10.07,2.07,4.17-.43,7.85-3.06,12.87-3.58,5.02-.52,16.27,4.87,22.82,4.19,6.42-.65,10.35-7.6,15.84-9.01,5.48-1.4,11.41.09,19.93-2.05,6.24-1.57,39.98-28.89,42.04-33.6,2.05-4.72.77-7.54,3.06-11.3,1.87-3.04,10.4-11.2,13.12-14.87,2.73-3.64,2.47-8.98,4.32-12.82,1.86-3.85,9.36-21.23,11.95-26.28,2.58-5.05,3.14-10.47,3.14-16.09-.02-5.63-1.13-9.45-.64-15.7.49-6.25-.67-16.13-2.52-20.43-1.85-4.31-2.72-7.19-8.42-14.08-4.97-6.01-3.58-19.03-3.61-27.48-.01-8.44-4.88-15.96-5.78-22.06-.91-6.11-4.16-32.75-9.21-40.17-5.63-8.29-9.24-10.59-11.74-15.69-1.39-2.84-.82-4.79-1.93-7.35-1.2-2.78-7.92-12.91-17.92-13.62-6.35-.46-14.46,15.05-24.99,12.89-11.4-2.34-8.37-14.58-24.95-14.59"></path>
          <path class="st5" d="M62.35,391.62c-1.56,9.88-1.27,9.86-.63,16.08.64,6.23,3,9.71,3.51,11.94"></path>
          <path class="st5" d="M67.32,426c1.47,3.28,3.24,6.53,5.67,8"></path>
          <path class="st5" d="M97.7,440.59c3.48.5,6.62-2.4,10.83-3.11"></path>
          <path class="st5" d="M118.55,437.55c2.31.1,7.13,2.46,10.32,2.99"></path>
          <path class="st5" d="M139.03,442.06c1.75-2.47,1.38-3.34,4.35-5.04"></path>
          <path class="st5" d="M151.21,435.26c3.77.59,5.64,2.1,9.07,2.05"></path>
          <path class="st5" d="M61.6,384.27c.69-4.35-.87-5.62-1.11-10.75-.24-5.13-.03-3.43-.25-6.84"></path>
          <path class="st5" d="M122.41,171.89c-.61,2.35-4.1,7.28-5.6,9.44"></path>
          <path class="st5" d="M115.31,183.48c-1.79,1.91-.84.09-1.79,1.91"></path>
          <path class="st5" d="M112.55,187.19c-1.35,3.57-7.57,12.51-9.01,15.23-1.44,2.72-3.41,5.78-5.47,10.85-2.06,5.07-10.51,17.38-11.48,21.77"></path>
          <path class="st5" d="M81.68,242.97c-1.55,4.45-3.96,11.56-5.37,14.56-1.41,3.01-3.19,5.19-4.06,7.85"></path>
          <path class="st5" d="M71.38,268.05c-1.09,3.25-.91,2.38-1.8,4.76"></path>
          <path class="st5" d="M67.1,279.35c-1.66,3.31-2.36,7.68-2.94,10.3"></path>
          <path class="st5" d="M63.57,292.3c-1.8,4.76-1.46,2.43-1.8,4.76"></path>
          <path class="st5" d="M61.62,300.83c-.72,1.36-.82.75-.04,2.68.91,2.27.41,4.47.77,1.93"></path>
          <path class="st5" d="M62.3,307.43c-.4,1.9-1.42,7.3-1.5,9.3"></path>
          <path class="st5" d="M60.23,319.52c-.58,1.35-4.27,6.73-4.02,7.99.24,1.27-.26,1.31-.23,2.59.02,1.28.56,1.09.52,2.67-.04,1.58.57,1.66.19,4.42"></path>
          <path class="st5" d="M55.99,340.96c-.52,1.91-1.1,1.83-1.06,3.67"></path>
          <path class="st5" d="M54.21,347.29c-.24,1.74-2.45,15.12-1.22,20.15,1.24,5.01,2.95,7.27,2.61,9.72"></path>
          <path class="st5" d="M55.25,379.64c-.42,2.9-2.58,10.99-2.68,14.28"></path>
          <path class="st5" d="M52.23,398.95c-.53,1.77.29,2.83.5,4.8.2,1.99.57,2.81.41,4.11"></path>
          <path class="st5" d="M54.43,412.02c-.06,2.15.06,6.15,2.38,10.49,2.29,4.33.83,1.05,1.06,2.75"></path>
          <path class="st5" d="M59.44,431.09c-.16,1.75.63,3.81,1.7,5.83,1.06,2.04.4,1.1,2.59,3.03,2.2,1.91,1.47.56,3.97,1.72"></path>
          <path class="st5" d="M74.52,443.16c1.28-.02,3.61.34,5.38.93,1.78.59.73,1.56,2.51,2.09"></path>
          <path class="st5" d="M97.88,452.17c2.86,0,7.16-1.31,9.05-2.51"></path>
          <path class="st5" d="M110.9,447.97c1.42-.15,1.74-1.18,2.88-1.29"></path>
          <path class="st5" d="M116.69,448.66c2.17.21,4.47,1.68,7.53,2.22,3.07.54,6.29,1.37,8.12,1.04"></path>
          <path class="st5" d="M137.19,450.55c1.53-.45,4.66-4.77,6.96-6.01,2.31-1.24,3.92-2.25,5.5-2.27"></path>
          <path class="st5" d="M155.59,440.38c1.02.17,7.77,1.76,9.74,1.5,1.98-.28,1.93-.71,3.34-.85"></path>
          <path class="st5" d="M173.71,438.51c.78-.65,1.12-1.55,2.52-1.83"></path>
          <path class="st5" d="M187.11,428.41c.96-.52,2.16-2.66,3.13-2.91"></path>
          <path class="st5" d="M191.73,424.51c.52-.49,5.2-4.98,7.19-6.61,1.96-1.63,8.96-10.21,9.75-10.74"></path>
          <path class="st5" d="M210.73,403.52c.56-1.48,1.4-4.56,2.41-5.68,1.04-1.11,1.43-1.43,1.59-2.59"></path>
          <path class="st5" d="M219.44,389.48c.79-2.08,3.29-4.2,4.65-6.19,1.37-2.01,5.15-9.68,5.25-11.56"></path>
          <path class="st5" d="M233.52,363.6c.07-2.01,2.55-5.71,3.71-8.39,1.15-2.7,4.24-11.58,3.65-13.11"></path>
          <path class="st5" d="M243.18,328.29c-.17-1.69.3-6.88-.96-9.34-1.25-2.44-.77-3.5-.35-5.54"></path>
          <path class="st5" d="M241.46,307.18c-.45-1.54.72-5.38-.07-7.44-.78-2.07-4.09-9.87-6.1-12.38-2-2.52-3.56-9.21-3.77-11.33"></path>
          <path class="st5" d="M230.06,261.88c.15-2.72-.29-6.97.03-9.44.32-2.46.67-6.07.1-7.3"></path>
          <path class="st5" d="M226.12,233.27c-1.32-1.72-1.24-7.87-.94-9.19"></path>
          <path class="st5" d="M223.66,215.37c.3-1.6-3.35-17.81-5.48-20.31"></path>
          <path class="st5" d="M215.78,191.16c-.9-1.77-8.29-12.43-8.72-13.83"></path>
          <path class="st5" d="M203.06,181.46c1.39,2.43,6.21,8.94,6.93,10.3"></path>
          <path class="st5" d="M211.73,197.58c.58,1.51,1.19,1.88,1.39,3.14"></path>
          <path class="st5" d="M226.96,265.06c-.51,2.06.92,17.34,1.45,21.15.54,3.81,2.74,8.44,3.58,11.07.84,2.62,1.74,13.26.4,15.97"></path>
          <path class="st5" d="M224.94,287.14c.18,1.84,2.57,5.59,2.22,7.77"></path>
          <path class="st5" d="M179.76,429.16c-1.78.9-.59-.22-1.78.9"></path>
          <path class="st5" d="M178.49,425.85c-1.52,1.3-1.76,1.76-3.17,1.91"></path>
          <path class="st5" d="M177.29,423.26c-.66.5-2.45,1.25-3.7.95"></path>
          <path class="st5" d="M167.08,435.13c-1.25.47-3.95.55-5.51.03"></path>
          <path class="st5" d="M157.87,434.58c-.62-.4-.66-.79-1.52-.93"></path>
          <path class="st5" d="M154.86,433.15c-1.01-.04-1.45-.14-2.45-.18"></path>
          <path class="st5" d="M162.56,431.64q-.72-.07-1.37-.21"></path>
          <path class="st5" d="M154.51,429.9c-.68.22,2.33.34,2.9.27"></path>
          <path class="st5" d="M162.06,426.68c-.71.08-.24.6-1.36.15"></path>
          <path class="st5" d="M158.8,427.03c-.87-.06-1.59-.26-2.15-.54"></path>
          <path class="st5" d="M155.16,425.91c-.72-.06-3.55-.66-4.24-.37"></path>
          <path class="st5" d="M160.3,422.82c-.62.21-2.22.41-2.94.31"></path>
          <path class="st5" d="M154.35,422.68c-.57.04-1.95.44-2.78.28"></path>
          <path class="st5" d="M147.57,435.1c-1.34-.06-.31-.16-1.34-.06"></path>
          <path class="st5" d="M129.34,435.77c-1.37-.28-7.35-2.82-8.52-3.13-1.19-.32-.58.01-1.33.13"></path>
          <path class="st5" d="M128.77,430.37c-1.03.08-2.15-.56-2.93-.71"></path>
          <path class="st5" d="M123.84,428.71c-.87-.05-2.12-.3-3.11-.49"></path>
          <path class="st5" d="M136.3,426.63c-.55.14-1.03.19-1.55.14"></path>
          <path class="st5" d="M129.36,426.33c-.57.01-1.33-.48-2.01-.5-.66-.03-.92-.21-1.45-.13"></path>
          <path class="st5" d="M124.34,424.75c-.53-.08-2.42-.31-2.8-.32"></path>
          <path class="st5" d="M127.73,422.41c-.54-.09-1.54-.09-1.69-.16"></path>
          <path class="st5" d="M124.82,421.57c-.38.04-.87-.1-1.16-.22"></path>
          <path class="st5" d="M106.12,427.05c.79.21,3.48.85,4.2.74"></path>
          <path class="st5" d="M103.37,429.01c.93.62,3.1.45,4.36.63"></path>
          <path class="st5" d="M109.61,429.45c.76-.07,1.05.03,1.64.16"></path>
          <path class="st5" d="M99.19,434.67c.97.24,7.68-1.6,9.61-1.65,1.94-.05.41-.18,1.17-.12"></path>
          <path class="st5" d="M113.78,442.1c-.8-.2-2.07-.56-3.45.34-1.39.92-6.05,3.78-7.54,4.02"></path>
          <path class="st5" d="M119.04,442.26c.58.09,1.76-.24,2.43.03"></path>
          <path class="st5" d="M124.25,444.25c.8.33,4.26,2.83,5.19,3.09.94.25.44.24.94.25"></path>
          <path class="st5" d="M115.11,445.8c.88.22,2.26-.22,3-.01.73.22,2.1.93,2.84,1.14.74.21,3.06,1.38,3.75,1.72.67.32,2.84,1.19,3.71,1.24"></path>
          <path class="st5" d="M61.8,430.87c.08.68,1.87,7.08,3.75,7.96"></path>
          <path class="st5" d="M66.9,439.41c.69.42.53.25,1.34.53"></path>
          <path class="st5" d="M63.25,427.55c.59.88.36,1.61.71,2.15"></path>
          <path class="st5" d="M64.73,430.88c.46.91.33,3.91,1.33,5.26,1,1.34.6.94,1,1.34"></path>
          <path class="st5" d="M69.62,418.47c.16.91,1.58,4.98,2.46,6.6.88,1.63,3.46,5.14,4.44,5.62"></path>
          <path class="st5" d="M73.95,415.44c.3.83.96,3.12,1.99,4.74,1.02,1.61,2.52,3.01,3.53,3.75"></path>
          <path class="st5" d="M76.62,412.96c.28.54.69,3.15,1.23,4.16.52,1.02,2.61,3.17,3.29,3.6"></path>
          <path class="st5" d="M78.32,411.42c.22.62.7,1.86,1.29,2.87.61,1,1,1.32,1.7,1.91"></path>
          <path class="st5" d="M80.49,408.2c.3.82.53,1.66,1.22,2.86.71,1.23.24.85,1.27,1.82"></path>
          <path class="st5" d="M82.4,407.23c.17.97.39,1.09,1.03,1.68"></path>
          <path class="st5" d="M84.21,410.81c.12.58-.31.54.56,1.3"></path>
          <path class="st5" d="M83.79,404.93c.21.4.86,2.56,1.22,3.24.34.68,1.12,1.24,1.76,1.85"></path>
          <path class="st5" d="M221.01,274.01c-.09.96-.84,3.9-.75,4.76"></path>
          <path class="st5" d="M220.47,280.83c.15,1.32.98,2,.96,3.34,0,1.34.72,2.78,1.02,3.8"></path>
          <path class="st5" d="M224.08,278.75c-.3.79-.14.58-.21,1.73"></path>
          <path class="st5" d="M58.67,412.9c.38,1.36,1.95,9.3,3.11,10.23"></path>
          <path class="st5" d="M70.95,386.27c.11,1.12-.96,14.11-.19,15.93"></path>
          <path class="st5" d="M66.53,388.63c-.02.95-.29,2.02-.37,2.6"></path>
          <path class="st5" d="M66.41,393.6c.18,1.31.61,2.03.6,2.69"></path>
          <path class="st5" d="M66.8,397.46c-.21,1.16-.26.69-.21,1.16"></path>
          <path class="st5" d="M74.32,384.67c-.05.49.02.29.12,1.24"></path>
          <path class="st5" d="M74.63,388.17c.13.85-.22.6-.39,1.56"></path>
          <path class="st5" d="M73.77,391.12c0,1.33.19.66.17,1.7"></path>
          <path class="st5" d="M66.53,361.94c-.15,1.25-.71,4.07-.54,5.86.2,1.8,3.92,7.42,3.97,8.83"></path>
          <path class="st5" d="M76.91,371.93c-.1.87-.02,1.63.23,2.25.27.65.89.39,1.08,1.23"></path>
          <path class="st5" d="M78.66,371.37c.05.47.16,1.6.6,2.13.44.52.65.61.88,1.15"></path>
          <path class="st5" d="M61.48,335.87c0,.96-.59,1.77-.5,2.62"></path>
          <path class="st5" d="M61.12,339.9c-.4.71-.27,2-.32,2.35"></path>
          <path class="st14" d="M36.01,307.51c.13,2.19-.58,4.03-1.61,4.09l-5.16.33c-1.03.07-1.98-1.65-2.11-3.86l-2.53-39.46c-.14-2.19.59-4.03,1.62-4.1l5.16-.33c1.03-.07,1.98,1.66,2.11,3.86l2.54,39.47Z"></path>
          <path class="st5" d="M36.01,307.51c.13,2.19-.58,4.03-1.61,4.09l-5.16.33c-1.03.07-1.98-1.65-2.11-3.86l-2.53-39.46c-.14-2.19.59-4.03,1.62-4.1l5.16-.33c1.03-.07,1.98,1.66,2.11,3.86l2.54,39.47Z"></path>
          <line class="st5" x1="36.18" y1="310.3" x2="27.45" y2="309.87"></line>
          <line class="st5" x1="27.27" y1="307.14" x2="36.01" y2="307.51"></line>
          <line class="st5" x1="35.86" y1="305.28" x2="27.14" y2="304.94"></line>
          <line class="st5" x1="26.95" y1="302.12" x2="35.57" y2="300.7"></line>
          <line class="st5" x1="35.45" y1="298.96" x2="26.21" y2="298.22"></line>
          <line class="st5" x1="26.36" y1="296.25" x2="35.25" y2="295.68"></line>
          <line class="st5" x1="35.09" y1="293.28" x2="26.31" y2="292.25"></line>
          <line class="st5" x1="26.18" y1="290.13" x2="34.86" y2="289.79"></line>
          <line class="st5" x1="34.74" y1="287.78" x2="25.76" y2="286.88"></line>
          <line class="st5" x1="25.63" y1="284.76" x2="34.51" y2="284.18"></line>
          <line class="st5" x1="34.4" y1="282.59" x2="25.44" y2="281.81"></line>
          <line class="st5" x1="25.28" y1="279.29" x2="34.16" y2="278.72"></line>
          <line class="st5" x1="34.07" y1="277.14" x2="25.28" y2="276.22"></line>
          <line class="st5" x1="25.16" y1="274.21" x2="33.88" y2="274.31"></line>
          <line class="st5" x1="33.76" y1="272.41" x2="25.08" y2="272.98"></line>
          <line class="st5" x1="24.96" y1="270.94" x2="33.54" y2="269.05"></line>
          <path class="st15" d="M16.25,25.34s-10.65,24.33.27,158.28l2.55,39.83.27,4.44,2.24,35.03c.16,2.2,1.43,3.9,2.86,3.82l7.23-.47c1.44-.1,2.49-1.95,2.34-4.14l-2.24-35.03-.28-4.44L20.04,43.68c-.65-10.22-2.35-18.43-3.79-18.34"></path>
          <path class="st3" d="M16.25,25.34s-10.65,24.33.27,158.28l2.55,39.83.27,4.44,2.24,35.03c.16,2.2,1.43,3.9,2.86,3.82l7.23-.47c1.44-.1,2.49-1.95,2.34-4.14l-2.24-35.03-.28-4.44L20.04,43.68c-.65-10.22-2.35-18.43-3.79-18.34Z"></path>
          <path class="st14" d="M16.69,27.62s-8.25,23.82,1.37,158.15l2.55,39.92.29,4.45,2.69,35.4c.14,2.2.33,3.67.94,3.62l3.12-.2c.61-.03,1.02-1.85.86-4.06l-2.24-35.11-.29-4.45L16.58,46.06c-.66-10.25.26-17.4.11-18.45"></path>
          <path class="st14" d="M46.44,265.98c.07,1.23-8.06,2.77-18.17,3.41-10.13.64-18.39.17-18.47-1.07-.09-1.23,8.06-2.76,18.17-3.41,10.13-.65,18.39-.17,18.47,1.07"></path>
          <path class="st5" d="M46.44,265.98c.07,1.23-8.06,2.77-18.17,3.41-10.13.64-18.39.17-18.47-1.07-.09-1.23,8.06-2.76,18.17-3.41,10.13-.65,18.39-.17,18.47,1.07Z"></path>
          <path class="st16" d="M97.69,267.2c-19.92,15.18-15.2,23.23-38.8,26.52-23.6,3.29-22.43-10.05-34.79-7.65-9.92,1.94-9.72,11.07,4.83,13.6,14.55,2.54,19.27,3.05,33.89-.06,17.66-3.75,17.84-3.98,29.3-16.15,11.44-12.18,5.57-16.28,5.57-16.28"></path>
          <path class="st16" d="M187.47,356.28c-.38,8.24-4.83,47.34-2.34,57.47,3.65,14.82-1.77,34.96,2.95,44.14,4.05,7.85,3.9,5.92,10.55,10.66,4.56,3.28,13.16,8.98,6.37,12.63,0,0-4.49.52-11.01-1.53-12.95-4.08-15.99-5.9-15.45-17.94.54-12.04-6.23-28.8-5.37-48.08.87-19.26-3.59-34.85-3.28-41.72.3-6.86,17.59-15.65,17.59-15.65"></path>
          <path class="st16" d="M99.91,371.07c-.03,8.26,2.36,24.04,2.29,39.31-.06,15.27.04,35.02-5.13,43.95-4.42,7.65-4.18,5.7-11.05,10.13-4.73,3.04-13.59,8.31-6.99,12.31,0,0,4.46.73,11.08-.99,13.13-3.44,16.26-5.11,16.31-17.15.05-12.06,8.92-29.47,8.99-48.76.09-19.28,6.36-32.29,1.14-36.78-3.79-3.27-16.65-2.02-16.65-2.02"></path>
          <path class="st16" d="M189.46,307.11c24.68-4.2,23.83-11.62,46.27-3.59,22.41,8.03,18.04,15.11,27.68,21.02,8.61,5.26,15.56-8.38,2.03-14.3-14.03-6.14-18.44-8.98-30.05-15.68-18.57-10.7-17.66-4.75-33.44.72-15.8,5.47-12.48,11.83-12.48,11.83"></path>
          <path class="st16" d="M157.67,146.06c6.02-1.76,11.69-.98,19.68,3.98,7.97,4.97,4.87,29.73,8.08,55.6,3.23,25.86,26.35,32.56,29.85,44.53,1.82,6.2,3.19,1.72,6.46,15.74,3.01,12.85,5.86,34.41,11.07,44.96,4.48,9.09.14,9.18-.05,23.17-.15,11.67-2.61,11.37-9.79,26.48-7.19,15.1-6.9,13.7-17.19,23.22-10.28,9.5-8.5,11.06-29.18,21.25-14.78,7.28-19.92,13.94-39.44,15.39-19.9,1.48-22.61-4.49-34.2-6.75-16.36-3.21-18.93-5.68-25.51-14.29-9.88-12.92-8.78-28.76-14.72-49.06-3.17-10.83.78-18.71,3.23-28.6,3.99-16.09,17.28-33.19,30.25-47.14,12.98-13.95,17.09-37.09,19.61-53.26,2.53-16.17,10.84-33.64,16.92-46.37,6.06-12.74,21.6-27.85,24.94-28.84"></path>
          <path class="st14" d="M157.51,146.11c5.88-1.72,11.37-1.06,19.09,3.52,7.7,4.56,3.21,33.09,6.05,57.29,2.85,24.19,26.8,35.29,30.06,46.47,4.19,14.28,8.25,18.19,11.08,27.89,0,0,2.08,20.3,4.74,29.39,2.65,9.08-.58,7.79-.93,20.91-.28,10.95-2.49,9.24-9.66,23.48-7.15,14.23-8.18,13.86-18.29,22.89-10.09,9.03-5.53,8.5-25.78,18.28-14.44,6.98-11.45,10.01-29.7,15.36-18.26,5.34-20.18,3.21-34.56-4.58-5.25-2.84-20.95-.2-27.92-14.19-10.89-21.92-6.07-17.14-11.25-34.87-2.32-7.89-6.17-18.03-2.94-27.45.8-2.32,8.37-34.95,22.17-46.84,23.92-20.62,28.52-44.3,31.15-59.48.93-5.38,1.06-28.79,12.12-50.77,6.04-12,21.31-26.35,24.57-27.3"></path>
          <path class="st16" d="M151.33,117.69c5.86-1.72,11.42-.89,19.28,4.18,7.85,5.07,28.83,28.3,32.22,54.34,3.38,26.04-2.81,21.17.73,33.25,4.51,15.42,14.08,26.63,16.57,31.1,6.94,12.5,1.9,18.11,3.72,32.01,1.36,10.48,4.89,20.2,3.4,34.66-1.21,11.68-4.15,16.27-4.67,18.64-.85,3.89-7.23,17.26-19.32,25.99-6.98,5.03-8.42,18.91-21.33,23.46-20.53,7.22-17.45,13.71-37.86,21.87-8.23,3.3-17.23,11.56-34.53-1.86-11.1-8.6-19.38-7.22-26.06-13.02-12.31-10.7-11.77-36.25-12.98-43.1-5.18-29.02-2.98-28.2-.68-38.13,3.75-16.13,9.99-40.82,22.56-54.74,12.55-13.91,16.38-37.15,18.69-53.39,2.33-16.24,10.3-33.73,16.12-46.49,5.82-12.77,20.88-27.82,24.15-28.78"></path>
          <path class="st14" d="M154.23,116.73c6.09-1.79,11.76-1.24,19.61,3.09,7.87,4.33,28.51,24.69,31.03,48.26,2.5,23.58-1.95,29.69-1.79,37.19.26,11.2,4.77,21.68,9.8,29.35,6.06,9.26,10.01,59.55,2.39,73.58-7.63,14.02-11.35,14.31-21.93,23.28-10.57,9-3.41,15.04-24.45,24.96-15.01,7.06-17.71,12.07-36.62,17.61-18.92,5.54-18.47,14.31-33.16,6.96-5.37-2.69-18.36-17.01-20.43-27.8-1.76-9.14-.39-13.68-2.08-17.66-3.73-8.77-7.82-25.26-5.09-34.37,7.28-24.28,7.4-41.09,8.53-53.5,3.54-38.71,12.11-53.99,26.72-69.99,14.48-15.86,21.21-26.59,21.68-33.89,1.16-18.13,22.44-26.09,25.81-27.08"></path>
          <path class="st7" d="M154.23,116.73c6.09-1.79,11.76-1.24,19.61,3.09,7.87,4.33,28.51,24.69,31.03,48.26,2.5,23.58-1.95,29.69-1.79,37.19.26,11.2,4.77,21.68,9.8,29.35,6.06,9.26,10.01,59.55,2.39,73.58-7.63,14.02-11.35,14.31-21.93,23.28-10.57,9-3.41,15.04-24.45,24.96-15.01,7.06-17.71,12.07-36.62,17.61-18.92,5.54-18.47,14.31-33.16,6.96-5.37-2.69-18.36-17.01-20.43-27.8-1.76-9.14-.39-13.68-2.08-17.66-3.73-8.77-7.82-25.26-5.09-34.37,7.28-24.28,7.4-41.09,8.53-53.5,3.54-38.71,12.11-53.99,26.72-69.99,14.48-15.86,21.21-26.59,21.68-33.89,1.16-18.13,22.44-26.09,25.81-27.08Z"></path>
          <path class="st14" d="M154.02,126.02c5.86-1.71,11.36-1.08,19.05,3.41,7.69,4.5,19.97,27.84,22.47,51.79,3.19,30.67,6.7,34.81,9.35,40.6,3.25,7.12,16.18,22.68,15.66,30.11,0,0-1.58,15.77-.09,25.08,1.82,11.33,3.07,10.13,3.11,17.91.09,10.83-.28,16.82-4.96,26.01-3.88,7.62-6.36,15.21-18.65,25.19-12.49,10.15-5.63,20.1-24.84,24.48-17.53,3.98-23.67,20.24-43.85,22.77-13.03,1.61-10.68-7.63-28.05-9.54-9.77-1.08-13.92-7.89-16.58-10.2-5.04-4.39-9.5-17.52-9.85-20.86-.93-9.14-2.89-31.74-.37-40.96,4.1-14.96-.03-39.02,13.81-50.84,23.95-20.46,22.81-50.62,25.48-65.67,2.68-15.03,7.59-30.32,13.67-42.22,6.07-11.91,21.36-26.13,24.63-27.09"></path>
          <path class="st16" d="M195.04,84.69c-4.58-.23-8.67.37-14-6.73-3.85-5.13-7.96-8.72-10.36-9.15-2.41-.43,5.64-6.59,12.72-4.3,4.67,1.5,5.34,1.43,11.05,1.6,3.65.11,8.75,2.81,11.04,1.93,0,0,3.06-.81,9.78.84,5.1,1.25,8.09.84,2.42,2.39-5.69,1.55-7.03,5.6-12.26,8.79-3.54,2.16-8.86,4.7-10.38,4.63"></path>
          <path class="st16" d="M171.28,159.55c0,1.98-2.65,3.59-5.9,3.57-3.24-.01-5.86-1.63-5.85-3.62,0-1.98,2.65-3.59,5.9-3.57,3.24.01,5.86,1.64,5.85,3.62"></path>
          <path class="st16" d="M177.24,172.02c.59,2.87-2.26,5.89-6.37,6.75-4.09.84-7.9-.79-8.51-3.67-.59-2.87,2.26-5.89,6.36-6.74,4.1-.86,7.92.79,8.52,3.66"></path>
          <path class="st16" d="M150.56,159.62c0,1.75-2.65,3.16-5.89,3.15-3.23-.02-5.87-1.45-5.86-3.21,0-1.76,2.65-3.17,5.89-3.15,3.25.01,5.88,1.45,5.86,3.2"></path>
          <path class="st16" d="M149.2,175.25c-.61,2.79-4.37,4.34-8.4,3.47-4.01-.87-6.8-3.84-6.19-6.64.61-2.79,4.36-4.34,8.39-3.47,4.03.88,6.8,3.85,6.2,6.63"></path>
          <path class="st7" d="M153.94,197.78c-5.5.04-12.11-2.46-13.14-2.45-3.7.01,26.64.62,26.64.62,3.04,1.14-10.76,1.82-13.49,1.84Z"></path>
          <rect class="st14" x="155.91" y="88.9" width="344.22" height="398.4"></rect>
        </g>
        <g>
          <path class="st13" d="M258.25,438.13h-8.98v8.98h8.98v-8.98ZM263.67,433.51v20.6h-5.41v-1.98h-8.98v1.98h-5.15v-21.13h18.36c-1.19-1.19-3.7-3.57-5.55-8.19-1.45-3.57-1.59-6.34-1.72-8.19h-2.64v-4.62h7.79c-.13,1.32-.13,1.85-.13,2.38,0,11.23,6.08,14.26,7.92,15.19l-4.49,3.96ZM231.44,429.41c0-1.58.13-4.09-.53-6.87l3.83-.92c.53,2.38.79,4.75.79,7.13l-4.09.66ZM236.46,420.83h-6.6c-.13,3.83-.13,5.55-.13,9.51,2.64-.13,3.57-.13,6.74-.53v-8.98ZM251.65,417.79c-.4.26-.53.26-.53.4-.4,1.98-2.25,9.24-5.55,13.6l-2.77-1.72v3.83q-.79.13-1.72.13v13.87c0,5.55-3.43,6.21-7.4,6.34l-2.11-5.55c.53,0,1.72.13,3.04.13,1.19,0,1.98-.79,1.98-2.77v-11.36c-.13,0-1.45.13-1.58.13v10.96h-3.83v-10.57c-.66,0-.79,0-1.45.13-.13,2.77-.26,6.21-1.19,10.83-.79,3.96-1.45,5.68-2.38,7.66l-5.02-1.58c3.04-6.21,3.83-9.77,3.96-16.64-.92,0-1.19,0-1.45.53,0,0-.53.53-.66.53-.26,0-.4-.26-.53-1.32l-.26-4.49h3.04c0-4.62,0-9.64-.13-14.26h4.36c.92-1.58,1.58-3.57,1.85-5.41l5.02.79c1.06.13,1.19.4,1.19.53s0,.4-.66.66c-.53.13-.66.13-.79.4-.13.53-.66,1.98-1.19,3.04h5.94v11.89c2.91-3.83,4.36-8.58,5.02-13.34l5.15,1.32c.4.13.92.26.92.79.26.13.13.26-.26.53"></path>
          <path class="st13" d="M316.89,436.28c.79,1.85,1.45,3.04,2.25,4.09,1.85-1.58,2.91-2.64,4.09-4.09h-6.34ZM325.87,427.96h-10.7c.13.53.4,2.25.53,3.43h10.17v-3.43ZM325.87,420.7h-11.09v3.04h10.96v-3.04h.13ZM309.63,427.96h-7.92v3.43h8.32c-.13-1.58-.26-2.38-.4-3.43M309.23,420.7h-7.53v3.04h7.53c.13-1.58.13-1.72,0-3.04M332.74,452c-1.72,2.77-4.23,3.04-4.75,3.04-1.45,0-3.96-1.19-5.81-2.64-1.85-1.45-3.43-3.17-4.36-4.23-5.28,2.91-9.77,4.75-20.21,6.08l-3.43-5.68c10.57-.4,15.58-2.38,20.47-5.02-1.19-1.98-2.25-3.83-3.3-7.4h-14.92v-20.21h13.07c0-1.85,0-3.43.13-5.28l5.55.53c.79.13,1.19.13,1.19.53v.26c-.13.13-.92.53-1.06.66-.26.13-.26.4-.26,3.43h16.38v20.21h-3.57l1.45,1.58c.13.26.66.79.66,1.06,0,.4-.13.4-1.06.4q-.53,0-1.19.79c-1.85,1.98-4.09,3.83-5.15,4.75,1.58,1.72,3.7,3.57,5.41,3.57s2.38-2.64,3.17-5.41l4.49,3.43c-.92,1.98-1.85,3.83-2.91,5.55"></path>
          <path class="st13" d="M388.07,443.68h-9.11v3.04h9.11v-3.04ZM377.77,419.64c.79,1.45,1.45,2.77,2.25,5.02h7c.92-1.72,1.58-3.04,2.38-5.02h-11.62ZM397.85,429.54h-9.77v2.77c0,.53.26.79,1.06.79h2.64c.79,0,1.19-.26,1.32-2.38l3.96,1.58c-.26,2.11-.66,5.41-4.09,5.41h-5.68c-2.91,0-3.83-1.19-3.83-3.3v-5.02h-7.53l3.83,2.11c.13.13.79.4.79.79,0,.26-.13.53-.4.53-.79.26-.92.26-1.19.92-1.72,3.43-3.17,4.62-4.62,5.81h18.75v9.64c1.32.13,1.72.13,2.64.13,1.45,0,1.98-.13,1.98-1.85v-17.96h.13ZM369.19,429.54v8.06c1.72-1.06,4.75-3.04,6.6-8.06h-6.6ZM395.34,419.64c-.66,2.11-1.19,3.43-1.85,5.02h9.64v26.02c0,2.64-1.59,3.83-4.75,3.83h-3.04l-2.11-4.89v.92h-14.26v1.06h-5.15v-11.49c-.53.4-.79.4-1.19.66l-3.43-2.64v16.11h-5.55v-29.72h9.77c-.53-1.72-1.32-3.43-2.11-5.02h-9.25v-4.36h18.23v-3.83l5.81.4c.4,0,1.06.13,1.06.53,0,.26-.26.53-.92.92v1.85h18.23v4.36h-9.11v.26Z"></path>
          <path class="st13" d="M464.81,441.83h-17.17v6.21h17.17v-6.21ZM453.58,421.75l3.04.66c.53.13,1.45.26,1.45.79,0,.4-.4.53-1.06.92v2.38h16.77v5.15h-16.77v5.02h13.6v17.83h-5.81v-1.32h-17.17v1.32h-5.41v-17.83h9.11v-14.79h-10.57v7.79c0,5.55-.53,8.85-1.59,14.4-.79,4.09-2.24,7.13-3.43,9.91l-5.41-1.98c1.72-3.3,4.75-9.11,4.75-21.13v-14h14.92v-5.15l6.47.4c.53,0,1.06.26,1.06.79,0,.26-.4.53-.66.79-.26.13-.66.4-.66.53v2.77h18.23v5.15h-20.87v-.4Z"></path>
          <path class="st13" d="M216.12,260.5h-52.22c.08,5.99.18,11.96.13,17.96h52.81c1.73-5.37,1.45-11.36-.71-17.96Z"></path>
          <path class="st13" d="M493.15,284.4c-1.85-2.38-4.49-3.83-7.4-3.83h-36.72c-3.3,0-5.94-2.64-5.94-5.94v-34.21c0-5.02-4.09-8.98-8.98-8.98h-113.84c-3.3,0-6.21,1.72-7.79,4.62l-19.15,34.34c-1.19,2.11-1.45,4.49-.79,6.87.66,2.38,2.11,4.23,4.23,5.41,2.11,1.19,4.49,1.45,6.87.79,2.38-.66,4.23-2.25,5.41-4.23l14.79-26.68c1.06-1.85,3.04-3.04,5.28-3.04h90.07c3.3,0,5.94,2.64,5.94,5.94v34.21c0,5.02,4.09,8.98,8.98,8.98h29.85c1.98,0,3.83.92,5.02,2.64,1.06,1.58,1.32,3.7.66,5.55l-5.68,14.66c-.92,2.25-3.04,3.7-5.41,3.83-49.53,1.06-111.86,1.58-124.8-.66l-5.15-.92c-54.81-9.38-63.26-10.83-94.16-59.17-1.72-2.64-4.49-4.09-7.53-4.09h-10.79c2.16,6.6,2.44,12.59.71,17.96h1.62c1.98,0,3.83,1.06,5.02,2.64,32.22,48.47,48.34,51.24,101.82,60.36l5.15.92c15.32,2.64,84.13,2.11,138.28.66,3.7-.13,6.87-2.38,8.19-5.68l16.51-42.13.92-2.64.53-2.91c0-1.85-.53-3.7-1.72-5.28Z"></path>
          <path class="st13" d="M206.79,99.64h-35.41c-4.89,0-9.11,4.23-9.11,9.11v337.04c0,5.15,3.83,8.85,9.11,8.85s9.11-3.7,9.11-8.85v-161.39c0-3.3,2.64-5.94,5.94-5.94h30.39c1.73-5.37,1.45-11.36-.71-17.96h-29.67c-3.3,0-5.94-2.64-5.94-5.94V123.8c0-3.3,2.64-5.94,5.94-5.94h21.02c.2-6.03-.16-12.12-.67-18.23Z"></path>
          <path class="st13" d="M292.97,99.64h-86.17c.51,6.1.87,12.19.67,18.23h85.5c5.41,0,9.11-3.7,9.11-9.11s-3.7-9.11-9.11-9.11Z"></path>
        </g>
      </g>
    </g>
  </g>
  <g id="SvgjsG1033">
    <g>
      <path class="st9" d="M280.82,93.05c8.41-7.09,10.68-7.51,12.94-20.46,2.27-12.96-.71-12.91-1.48-16.73-.78-3.83,7.76.37,10.31.91,2.55.54,7.02-3.76,4.48,3.84-2.52,7.61-1.03,7.56-4.25,14.41-3.2,6.85-6.48,21.87-12.97,24.89l-9.03-6.87Z"></path>
      <path class="st1" d="M280.82,93.05c8.41-7.09,10.68-7.51,12.94-20.46,2.27-12.96-.71-12.91-1.48-16.73-.78-3.83,7.76.37,10.31.91,2.55.54,7.02-3.76,4.48,3.84-2.52,7.61-1.03,7.56-4.25,14.41-3.2,6.85-6.48,21.87-12.97,24.89l-9.03-6.87Z"></path>
      <path class="st10" d="M259.83,79.28s-3.97,2.22-5.95,6.53c-1.97,4.32-2.63,7.28-2.79,10.44-.17,3.34-4.58,5.83-4.95,8.32-.9,6.03,1.32,5.84-.14,10.35-1.48,4.5-13.37,20.6-16.06,29.69-2.28,7.74-17.86,32.26-21.37,39.2-3.26,6.44-10.23,20.39-10.92,25.55-.68,5.15-7.84,20.16-10.12,26.19-2.29,6.03-3.05,12.78-1.93,16.59,1.12,3.8-2.21,11.41-3.24,15.38-1.05,3.98-.13,5.82-.75,9.26-.61,3.45-4.32,12.05-4.67,15.71-.35,3.67,1.48,11.95,1.76,16.99.28,5.06-2.22,16.19-2.34,19.59-.14,3.4.64,3.8.69,6.7.06,2.89-.35,4.62.62,7.68.96,3.04.72,3.97,2.15,7.51,1.65,4.07,1.14,3.99,2.56,8.45,1.43,4.46,1.13,6.17,5.04,8.91,3.9,2.75,11,3.46,14.53,4.8,3.52,1.34,5.7,3.77,9.68,4.8,3.98,1.05,5.07,2.14,8.65,1.78,3.58-.38,6.75-2.63,11.06-3.08,4.3-.44,13.97,4.19,19.58,3.62,5.52-.57,8.89-6.55,13.61-7.74,4.71-1.22,9.8.06,17.11-1.77,5.36-1.35,34.34-24.81,36.1-28.86,1.75-4.06.66-6.48,2.62-9.7,1.6-2.61,8.93-9.62,11.28-12.76,2.33-3.15,2.11-7.72,3.7-11.02,1.59-3.31,8.03-18.24,10.26-22.57,2.22-4.35,2.7-8.98,2.69-13.82-.02-4.83-.96-8.12-.54-13.49.41-5.36-.58-13.85-2.17-17.55-1.59-3.71-2.33-6.16-7.22-12.09-4.27-5.16-3.07-16.35-3.1-23.6-.02-7.25-4.18-13.71-4.97-18.95-.79-5.24-3.57-28.12-7.9-34.49-4.84-7.11-7.95-9.1-10.1-13.47-2.14-4.38-1.19-6.9-2.66-11.82-1.47-4.93.27-6.79-2.22-12.1-2.47-5.3-5.81-7.13-7.8-10.08-2-2.94-1.45-4.69-5.05-6.73-3.6-2.05-10.14-4.52-13.31-7.1-3.17-2.58-7.67-8.66-10.12-10.2-5.31-3.33-11.27-1.01-11.27-1.01"></path>
      <path class="st9" d="M252.38,120.54c-4.81,0-4.04,4.61-7.32,7.32-2.74,2.27-3.23-3.39-6.01,1.11-3.87,6.28-7.18,11.71-8.72,16.93-2.26,7.62-17.6,31.78-21.05,38.6-3.21,6.33-10.09,20.09-10.75,25.16-.67,5.07-7.73,19.85-9.98,25.78-2.25,5.95-3,12.59-1.9,16.35,1.11,3.74-2.18,11.21-3.2,15.14-1.03,3.91-.12,5.72-.73,9.12-.6,3.39-4.25,11.87-4.6,15.48-.34,3.6,1.44,11.76,1.71,16.73.28,4.96-2.16,15.92-2.29,19.28-.14,3.36.62,3.75.68,6.6.05,2.85-.35,4.56.61,7.56.95,3,.7,3.91,2.12,7.41,1.62,4,1.12,3.94,2.52,8.31,1.41,4.38,1.1,6.08,4.96,8.79,3.85,2.69,10.83,3.4,14.3,4.71,3.47,1.31,5.62,3.72,9.54,4.74,3.92,1.03,4.98,2.11,8.52,1.75,3.53-.36,6.64-2.59,10.89-3.03,4.24-.44,13.76,4.12,19.3,3.55,5.43-.55,8.76-6.43,13.4-7.62,4.63-1.19,9.65.08,16.85-1.73,5.28-1.33,33.82-24.44,35.55-28.42,1.73-3.99.65-6.37,2.59-9.56,1.58-2.57,8.8-9.48,11.09-12.57,2.31-3.08,2.09-7.59,3.65-10.84,1.58-3.26,7.92-17.96,10.1-22.23,2.18-4.27,2.66-8.85,2.65-13.61-.02-4.76-.95-8-.54-13.28.42-5.29-.57-13.64-2.13-17.28-1.57-3.65-2.3-6.08-7.12-11.91-4.2-5.08-3.03-16.1-3.05-23.24-.01-7.14-4.13-13.5-4.89-18.66-.77-5.16-3.52-27.7-7.79-33.97-4.76-7.01-7.82-8.96-9.93-13.27-1.18-2.4-.7-4.05-1.63-6.21-1.01-2.35-6.7-10.92-15.15-11.52-5.37-.39-12.23,12.73-21.14,10.9-9.64-1.98-7.08-12.33-21.1-12.34"></path>
      <path class="st1" d="M189.39,324.33c-1.32,8.36-1.07,8.34-.53,13.6.54,5.27,2.54,8.21,2.96,10.1"></path>
      <path class="st1" d="M193.59,353.41c1.25,2.78,2.74,5.52,4.8,6.77"></path>
      <path class="st1" d="M219.29,365.75c2.94.42,5.6-2.03,9.16-2.63"></path>
      <path class="st1" d="M236.92,363.18c1.95.08,6.03,2.08,8.73,2.53"></path>
      <path class="st1" d="M254.25,367c1.48-2.09,1.17-2.82,3.68-4.26"></path>
      <path class="st1" d="M264.55,361.25c3.19.5,4.77,1.78,7.67,1.73"></path>
      <path class="st1" d="M188.75,318.11c.58-3.68-.74-4.75-.94-9.09-.2-4.34-.02-2.9-.21-5.79"></path>
      <path class="st1" d="M240.19,138.49c-.51,1.99-3.47,6.16-4.74,7.99"></path>
      <path class="st1" d="M234.18,148.29c-1.52,1.61-.71.07-1.52,1.61"></path>
      <path class="st1" d="M231.85,151.43c-1.14,3.02-6.41,10.58-7.62,12.88-1.22,2.3-2.88,4.89-4.63,9.18-1.74,4.29-8.89,14.7-9.71,18.41"></path>
      <path class="st1" d="M205.74,198.61c-1.31,3.76-3.35,9.77-4.54,12.31-1.19,2.54-2.7,4.39-3.43,6.64"></path>
      <path class="st1" d="M197.03,219.82c-.93,2.75-.77,2.01-1.52,4.02"></path>
      <path class="st1" d="M193.41,229.38c-1.41,2.8-1.99,6.5-2.49,8.71"></path>
      <path class="st1" d="M190.43,240.33c-1.52,4.02-1.23,2.05-1.52,4.02"></path>
      <path class="st1" d="M188.77,247.54c-.61,1.15-.69.64-.03,2.26.77,1.92.35,3.78.65,1.63"></path>
      <path class="st1" d="M189.35,253.13c-.34,1.61-1.2,6.18-1.27,7.87"></path>
      <path class="st1" d="M187.6,263.35c-.49,1.14-3.62,5.69-3.4,6.76.21,1.07-.22,1.11-.19,2.19.02,1.09.47.92.44,2.25-.03,1.33.49,1.41.16,3.74"></path>
      <path class="st1" d="M184.02,281.49c-.44,1.62-.93,1.55-.89,3.11"></path>
      <path class="st1" d="M182.5,286.84c-.2,1.48-2.07,12.79-1.03,17.04,1.05,4.24,2.5,6.15,2.21,8.22"></path>
      <path class="st1" d="M183.38,314.2c-.35,2.45-2.18,9.29-2.27,12.08"></path>
      <path class="st1" d="M180.83,330.53c-.45,1.49.25,2.39.42,4.06.17,1.68.48,2.37.35,3.48"></path>
      <path class="st1" d="M182.69,341.58c-.05,1.82.05,5.2,2.01,8.87,1.94,3.66.7.89.89,2.32"></path>
      <path class="st1" d="M186.93,357.71c-.13,1.48.53,3.22,1.43,4.93.9,1.72.34.93,2.19,2.56,1.86,1.62,1.24.48,3.36,1.46"></path>
      <path class="st1" d="M199.68,367.92c1.08-.01,3.05.29,4.55.79,1.51.5.62,1.32,2.12,1.77"></path>
      <path class="st1" d="M219.44,375.54c2.42,0,6.06-1.11,7.65-2.12"></path>
      <path class="st1" d="M230.45,371.99c1.2-.13,1.47-1,2.43-1.09"></path>
      <path class="st1" d="M235.35,372.57c1.83.17,3.78,1.42,6.37,1.88,2.59.46,5.32,1.16,6.87.88"></path>
      <path class="st1" d="M252.69,374.17c1.29-.38,3.94-4.03,5.89-5.08,1.95-1.05,3.31-1.91,4.65-1.92"></path>
      <path class="st1" d="M268.25,365.57c.87.15,6.57,1.49,8.24,1.27,1.67-.24,1.63-.6,2.83-.72"></path>
      <path class="st1" d="M283.58,363.99c.66-.55.95-1.31,2.14-1.55"></path>
      <path class="st1" d="M294.91,355.45c.81-.44,1.83-2.25,2.65-2.46"></path>
      <path class="st1" d="M298.81,352.15c.44-.42,4.4-4.21,6.08-5.59,1.66-1.38,7.58-8.64,8.25-9.08"></path>
      <path class="st1" d="M314.89,334.4c.48-1.25,1.18-3.85,2.04-4.8.88-.94,1.21-1.21,1.35-2.19"></path>
      <path class="st1" d="M322.25,322.52c.67-1.76,2.78-3.55,3.94-5.23,1.16-1.7,4.36-8.19,4.44-9.78"></path>
      <path class="st1" d="M334.16,300.64c.06-1.7,2.16-4.83,3.13-7.1.97-2.28,3.59-9.8,3.09-11.09"></path>
      <path class="st1" d="M342.34,270.77c-.14-1.43.25-5.82-.81-7.9-1.05-2.06-.65-2.96-.29-4.68"></path>
      <path class="st1" d="M340.88,252.92c-.38-1.31.61-4.55-.06-6.29-.66-1.75-3.46-8.35-5.16-10.47-1.69-2.13-3.01-7.79-3.19-9.58"></path>
      <path class="st1" d="M331.24,214.6c.12-2.3-.24-5.89.02-7.98.27-2.08.57-5.13.09-6.17"></path>
      <path class="st1" d="M327.9,190.4c-1.12-1.45-1.05-6.65-.8-7.77"></path>
      <path class="st1" d="M325.82,175.26c.26-1.36-2.84-15.06-4.63-17.17"></path>
      <path class="st1" d="M319.16,154.79c-.76-1.5-7.01-10.52-7.37-11.7"></path>
      <path class="st1" d="M308.4,146.58c1.18,2.06,5.25,7.56,5.86,8.71"></path>
      <path class="st1" d="M315.73,160.22c.49,1.28,1.01,1.59,1.17,2.65"></path>
      <path class="st1" d="M328.62,217.29c-.43,1.74.78,14.67,1.22,17.89.46,3.22,2.32,7.14,3.03,9.36.71,2.22,1.47,11.22.34,13.5"></path>
      <path class="st1" d="M326.91,235.96c.16,1.56,2.17,4.73,1.88,6.57"></path>
      <path class="st1" d="M288.69,356.08c-1.5.76-.5-.19-1.5.76"></path>
      <path class="st1" d="M287.62,353.28c-1.28,1.1-1.49,1.49-2.69,1.62"></path>
      <path class="st1" d="M286.61,351.09c-.56.42-2.07,1.06-3.13.8"></path>
      <path class="st1" d="M277.97,361.13c-1.06.39-3.34.46-4.66.02"></path>
      <path class="st1" d="M270.18,360.67c-.52-.34-.55-.67-1.29-.79"></path>
      <path class="st1" d="M267.63,359.46c-.85-.03-1.23-.12-2.07-.15"></path>
      <path class="st1" d="M274.15,358.18q-.61-.06-1.16-.18"></path>
      <path class="st1" d="M267.34,356.7c-.58.19,1.97.29,2.45.23"></path>
      <path class="st1" d="M273.73,353.98c-.6.07-.2.5-1.15.13"></path>
      <path class="st1" d="M270.97,354.28c-.74-.05-1.35-.22-1.82-.46"></path>
      <path class="st1" d="M267.89,353.34c-.61-.05-3-.56-3.58-.31"></path>
      <path class="st1" d="M272.23,350.72c-.52.18-1.88.35-2.49.26"></path>
      <path class="st1" d="M267.2,350.6c-.48.04-1.65.38-2.35.24"></path>
      <path class="st1" d="M261.46,361.1c-1.13-.05-.26-.14-1.13-.05"></path>
      <path class="st1" d="M246.05,361.68c-1.16-.24-6.22-2.39-7.2-2.64-1.01-.27-.49.01-1.12.11"></path>
      <path class="st1" d="M245.57,357.1c-.87.07-1.82-.48-2.48-.6"></path>
      <path class="st1" d="M241.4,355.7c-.73-.04-1.8-.25-2.63-.41"></path>
      <path class="st1" d="M251.94,353.94c-.46.12-.87.16-1.31.12"></path>
      <path class="st1" d="M246.07,353.69c-.48.01-1.12-.41-1.7-.42-.56-.03-.78-.18-1.22-.11"></path>
      <path class="st1" d="M241.82,352.35c-.45-.07-2.05-.26-2.37-.27"></path>
      <path class="st1" d="M244.68,350.37c-.45-.08-1.31-.08-1.43-.14"></path>
      <path class="st1" d="M242.22,349.66c-.32.03-.73-.09-.98-.19"></path>
      <path class="st1" d="M226.41,354.3c.66.18,2.94.72,3.56.63"></path>
      <path class="st1" d="M224.08,355.95c.78.53,2.62.38,3.68.53"></path>
      <path class="st1" d="M229.36,356.33c.64-.06.89.03,1.39.14"></path>
      <path class="st1" d="M220.55,360.74c.82.2,6.5-1.35,8.13-1.4,1.64-.04.35-.15.99-.1"></path>
      <path class="st1" d="M232.89,367.02c-.68-.17-1.75-.47-2.92.29-1.17.78-5.11,3.19-6.38,3.4"></path>
      <path class="st1" d="M237.34,367.17c.49.07,1.49-.2,2.06.03"></path>
      <path class="st1" d="M241.75,368.85c.68.28,3.61,2.4,4.39,2.61.8.21.37.2.8.21"></path>
      <path class="st1" d="M234.02,370.15c.75.18,1.91-.18,2.54,0,.62.19,1.78.79,2.4.96.62.18,2.59,1.17,3.17,1.46.57.27,2.4,1.01,3.13,1.05"></path>
      <path class="st1" d="M188.93,357.53c.06.58,1.59,5.98,3.17,6.73"></path>
      <path class="st1" d="M193.24,364.75c.58.35.45.21,1.14.45"></path>
      <path class="st1" d="M190.15,354.72c.5.74.31,1.36.6,1.82"></path>
      <path class="st1" d="M191.41,357.54c.38.77.28,3.31,1.12,4.45.84,1.13.51.8.84,1.13"></path>
      <path class="st1" d="M195.54,347.04c.13.77,1.34,4.22,2.08,5.58.75,1.38,2.93,4.34,3.75,4.75"></path>
      <path class="st1" d="M199.2,344.48c.25.7.81,2.64,1.68,4.01.86,1.36,2.13,2.55,2.99,3.17"></path>
      <path class="st1" d="M201.46,342.38c.23.46.58,2.67,1.04,3.52.44.86,2.2,2.68,2.79,3.04"></path>
      <path class="st1" d="M202.9,341.08c.18.52.59,1.57,1.09,2.43.51.85.85,1.12,1.44,1.61"></path>
      <path class="st1" d="M204.74,338.36c.25.69.45,1.4,1.03,2.42.6,1.04.2.71,1.07,1.54"></path>
      <path class="st1" d="M206.35,337.53c.14.82.33.92.87,1.42"></path>
      <path class="st1" d="M207.88,340.56c.1.49-.26.45.48,1.1"></path>
      <path class="st1" d="M207.52,335.59c.18.34.73,2.17,1.03,2.74.29.57.95,1.05,1.49,1.57"></path>
      <path class="st1" d="M323.58,224.86c-.07.81-.71,3.3-.64,4.02"></path>
      <path class="st1" d="M323.12,230.63c.12,1.12.83,1.69.81,2.82,0,1.13.61,2.35.87,3.22"></path>
      <path class="st1" d="M326.18,228.87c-.26.67-.12.49-.17,1.47"></path>
      <path class="st1" d="M186.28,342.33c.32,1.15,1.65,7.86,2.63,8.65"></path>
      <path class="st1" d="M196.67,319.81c.09.95-.81,11.93-.16,13.47"></path>
      <path class="st1" d="M192.93,321.8c-.01.8-.24,1.71-.31,2.2"></path>
      <path class="st1" d="M192.83,326.01c.15,1.11.51,1.71.51,2.28"></path>
      <path class="st1" d="M193.16,329.27c-.18.98-.22.58-.18.98"></path>
      <path class="st1" d="M199.51,318.46c-.04.42.02.24.1,1.05"></path>
      <path class="st1" d="M199.77,321.41c.11.72-.19.51-.33,1.32"></path>
      <path class="st1" d="M199.05,323.91c0,1.13.16.56.15,1.44"></path>
      <path class="st1" d="M192.92,299.23c-.13,1.06-.6,3.45-.46,4.96.17,1.52,3.31,6.27,3.36,7.47"></path>
      <path class="st1" d="M201.7,307.68c-.09.73-.01,1.38.2,1.9.23.55.75.33.92,1.04"></path>
      <path class="st1" d="M203.19,307.2c.04.4.14,1.35.51,1.8.37.44.55.52.74.97"></path>
      <path class="st1" d="M188.66,277.18c0,.81-.5,1.5-.42,2.22"></path>
      <path class="st1" d="M188.35,280.59c-.34.6-.23,1.69-.27,1.99"></path>
      <path class="st9" d="M167.11,253.2c.11,1.85-.49,3.41-1.36,3.46l-4.36.28c-.87.06-1.67-1.4-1.79-3.26l-2.14-33.37c-.12-1.86.5-3.41,1.37-3.47l4.36-.28c.87-.06,1.67,1.4,1.78,3.26l2.15,33.38Z"></path>
      <path class="st1" d="M167.11,253.2c.11,1.85-.49,3.41-1.36,3.46l-4.36.28c-.87.06-1.67-1.4-1.79-3.26l-2.14-33.37c-.12-1.86.5-3.41,1.37-3.47l4.36-.28c.87-.06,1.67,1.4,1.78,3.26l2.15,33.38Z"></path>
      <line class="st1" x1="167.26" y1="255.55" x2="159.87" y2="255.19"></line>
      <line class="st1" x1="159.73" y1="252.88" x2="167.11" y2="253.2"></line>
      <line class="st1" x1="166.98" y1="251.31" x2="159.61" y2="251.02"></line>
      <line class="st1" x1="159.45" y1="248.64" x2="166.74" y2="247.44"></line>
      <line class="st1" x1="166.64" y1="245.96" x2="158.83" y2="245.34"></line>
      <line class="st1" x1="158.95" y1="243.67" x2="166.47" y2="243.19"></line>
      <line class="st1" x1="166.34" y1="241.16" x2="158.91" y2="240.29"></line>
      <line class="st1" x1="158.8" y1="238.49" x2="166.14" y2="238.21"></line>
      <line class="st1" x1="166.04" y1="236.51" x2="158.44" y2="235.74"></line>
      <line class="st1" x1="158.33" y1="233.95" x2="165.85" y2="233.46"></line>
      <line class="st1" x1="165.75" y1="232.12" x2="158.18" y2="231.46"></line>
      <line class="st1" x1="158.04" y1="229.33" x2="165.55" y2="228.84"></line>
      <line class="st1" x1="165.47" y1="227.51" x2="158.04" y2="226.73"></line>
      <line class="st1" x1="157.93" y1="225.03" x2="165.31" y2="225.11"></line>
      <line class="st1" x1="165.21" y1="223.51" x2="157.87" y2="223.99"></line>
      <line class="st1" x1="157.77" y1="222.26" x2="165.02" y2="220.66"></line>
      <path class="st10" d="M150.4,14.54s-9.01,20.58.23,133.87l2.16,33.68.23,3.75,1.9,29.62c.13,1.86,1.21,3.3,2.42,3.23l6.12-.39c1.22-.08,2.11-1.65,1.98-3.5l-1.9-29.63-.23-3.76-9.7-151.36c-.55-8.65-1.98-15.59-3.2-15.51"></path>
      <path class="st1" d="M150.4,14.54s-9.01,20.58.23,133.87l2.16,33.68.23,3.75,1.9,29.62c.13,1.86,1.21,3.3,2.42,3.23l6.12-.39c1.22-.08,2.11-1.65,1.98-3.5l-1.9-29.63-.23-3.76-9.7-151.36c-.55-8.65-1.98-15.59-3.2-15.51Z"></path>
      <path class="st9" d="M150.77,16.47s-6.98,20.14,1.16,133.76l2.16,33.77.24,3.77,2.27,29.94c.11,1.86.28,3.1.8,3.06l2.64-.17c.52-.03.86-1.57.73-3.44l-1.9-29.69-.24-3.76-7.95-151.64c-.56-8.67.22-14.71.09-15.6"></path>
      <path class="st9" d="M175.93,218.07c.06,1.04-6.82,2.34-15.37,2.89-8.57.55-15.55.14-15.62-.91-.07-1.04,6.82-2.34,15.37-2.88,8.57-.55,15.55-.14,15.62.9"></path>
      <path class="st1" d="M175.93,218.07c.06,1.04-6.82,2.34-15.37,2.89-8.57.55-15.55.14-15.62-.91-.07-1.04,6.82-2.34,15.37-2.88,8.57-.55,15.55-.14,15.62.9Z"></path>
      <path class="st11" d="M219.28,219.1c-16.84,12.84-12.86,19.65-32.82,22.43-19.96,2.78-18.97-8.5-29.42-6.47-8.39,1.64-8.22,9.36,4.08,11.51,12.31,2.15,16.3,2.58,28.66-.05,14.93-3.17,15.09-3.36,24.78-13.66,9.68-10.3,4.71-13.77,4.71-13.77"></path>
      <path class="st11" d="M295.22,294.44c-.32,6.97-4.09,40.04-1.98,48.61,3.08,12.53-1.49,29.57,2.5,37.33,3.43,6.64,3.3,5,8.92,9.02,3.86,2.77,11.13,7.6,5.39,10.69,0,0-3.79.44-9.32-1.29-10.95-3.45-13.52-4.99-13.07-15.17.45-10.18-5.27-24.36-4.54-40.66.74-16.29-3.04-29.48-2.78-35.29.26-5.8,14.88-13.24,14.88-13.24"></path>
      <path class="st11" d="M221.16,306.95c-.03,6.98,2,20.33,1.94,33.24-.05,12.92.03,29.62-4.34,37.17-3.74,6.47-3.53,4.82-9.34,8.56-4,2.57-11.5,7.03-5.92,10.41,0,0,3.77.62,9.37-.84,11.11-2.91,13.75-4.32,13.8-14.5.05-10.2,7.54-24.92,7.6-41.24.08-16.3,5.38-27.31.97-31.1-3.21-2.76-14.08-1.71-14.08-1.71"></path>
      <path class="st11" d="M296.9,252.86c20.88-3.55,20.15-9.82,39.13-3.04,18.96,6.79,15.26,12.78,23.41,17.78,7.29,4.45,13.16-7.09,1.71-12.09-11.87-5.2-15.6-7.6-25.41-13.26-15.7-9.05-14.93-4.02-28.29.61-13.36,4.63-10.56,10-10.56,10"></path>
      <path class="st11" d="M270.01,116.64c5.09-1.49,9.89-.83,16.65,3.37,6.74,4.21,4.12,25.15,6.84,47.02,2.73,21.87,22.28,27.54,25.25,37.66,1.54,5.24,2.7,1.45,5.47,13.31,2.55,10.87,4.96,29.1,9.36,38.03,3.79,7.69.12,7.76-.04,19.6-.13,9.87-2.21,9.62-8.28,22.39-6.08,12.77-5.84,11.59-14.54,19.64-8.69,8.04-7.19,9.36-24.68,17.97-12.5,6.15-16.85,11.79-33.36,13.02-16.83,1.25-19.12-3.8-28.92-5.71-13.83-2.71-16.01-4.8-21.57-12.09-8.35-10.93-7.43-24.33-12.45-41.49-2.68-9.16.66-15.82,2.73-24.19,3.38-13.61,14.62-28.07,25.58-39.87,10.98-11.8,14.45-31.37,16.58-45.05,2.14-13.68,9.17-28.45,14.31-39.22,5.13-10.78,18.27-23.56,21.09-24.39"></path>
      <path class="st9" d="M269.88,116.68c4.97-1.45,9.62-.9,16.14,2.97,6.51,3.86,2.72,27.99,5.11,48.46,2.41,20.46,22.67,29.85,25.43,39.31,3.55,12.08,6.98,15.39,9.37,23.59,0,0,1.76,17.17,4.01,24.86,2.24,7.68-.49,6.59-.78,17.68-.24,9.26-2.11,7.82-8.17,19.86-6.05,12.03-6.92,11.72-15.47,19.36-8.53,7.63-4.68,7.19-21.8,15.46-12.21,5.9-9.68,8.46-25.12,12.99-15.45,4.52-17.07,2.72-29.23-3.87-4.44-2.4-17.72-.17-23.62-12-9.21-18.54-5.13-14.5-9.52-29.49-1.96-6.68-5.22-15.25-2.49-23.22.68-1.96,7.08-29.56,18.75-39.62,20.23-17.44,24.12-37.47,26.35-50.31.79-4.55.9-24.35,10.25-42.94,5.11-10.15,18.03-22.28,20.78-23.09"></path>
      <path class="st11" d="M264.65,92.65c4.96-1.45,9.66-.76,16.3,3.54,6.64,4.29,24.39,23.94,27.25,45.96,2.86,22.03-2.38,17.91.62,28.12,3.81,13.04,11.91,22.52,14.01,26.3,5.87,10.58,1.61,15.32,3.15,27.07,1.15,8.86,4.14,17.08,2.88,29.31-1.03,9.87-3.51,13.76-3.95,15.76-.72,3.29-6.11,14.6-16.34,21.98-5.91,4.26-7.12,16-18.04,19.84-17.36,6.11-14.76,11.6-32.02,18.5-6.96,2.79-14.58,9.78-29.2-1.57-9.39-7.27-16.39-6.11-22.04-11.01-10.42-9.05-9.96-30.66-10.98-36.45-4.38-24.54-2.52-23.85-.57-32.25,3.17-13.64,8.45-34.53,19.08-46.3,10.62-11.76,13.85-31.42,15.81-45.16,1.97-13.74,8.71-28.53,13.63-39.32,4.92-10.8,17.66-23.53,20.42-24.34"></path>
      <path class="st9" d="M267.1,91.84c5.15-1.51,9.94-1.05,16.59,2.61,6.66,3.66,24.11,20.88,26.24,40.82,2.11,19.94-1.65,25.11-1.51,31.45.22,9.47,4.03,18.33,8.29,24.83,5.12,7.83,8.47,50.37,2.02,62.23-6.45,11.86-9.6,12.1-18.55,19.69-8.94,7.61-2.89,12.72-20.68,21.11-12.69,5.97-14.98,10.21-30.97,14.9-16,4.69-15.62,12.11-28.05,5.89-4.54-2.27-15.53-14.39-17.28-23.51-1.49-7.73-.33-11.57-1.76-14.93-3.16-7.42-6.62-21.36-4.31-29.07,6.16-20.54,6.26-34.75,7.21-45.25,3-32.74,10.24-45.66,22.6-59.19,12.24-13.41,17.94-22.49,18.33-28.66.98-15.33,18.98-22.06,21.83-22.9"></path>
      <path class="st1" d="M267.1,91.84c5.15-1.51,9.94-1.05,16.59,2.61,6.66,3.66,24.11,20.88,26.24,40.82,2.11,19.94-1.65,25.11-1.51,31.45.22,9.47,4.03,18.33,8.29,24.83,5.12,7.83,8.47,50.37,2.02,62.23-6.45,11.86-9.6,12.1-18.55,19.69-8.94,7.61-2.89,12.72-20.68,21.11-12.69,5.97-14.98,10.21-30.97,14.9-16,4.69-15.62,12.11-28.05,5.89-4.54-2.27-15.53-14.39-17.28-23.51-1.49-7.73-.33-11.57-1.76-14.93-3.16-7.42-6.62-21.36-4.31-29.07,6.16-20.54,6.26-34.75,7.21-45.25,3-32.74,10.24-45.66,22.6-59.19,12.24-13.41,17.94-22.49,18.33-28.66.98-15.33,18.98-22.06,21.83-22.9Z"></path>
      <path class="st9" d="M266.92,99.69c4.96-1.45,9.61-.91,16.11,2.89,6.51,3.81,16.89,23.54,19,43.8,2.7,25.94,5.67,29.44,7.91,34.34,2.75,6.02,13.68,19.18,13.24,25.47,0,0-1.34,13.34-.08,21.21,1.54,9.58,2.59,8.57,2.63,15.15.07,9.16-.23,14.23-4.19,22-3.28,6.45-5.38,12.86-15.77,21.31-10.56,8.59-4.76,17-21.01,20.71-14.83,3.37-20.02,17.12-37.09,19.26-11.02,1.37-9.03-6.45-23.73-8.06-8.26-.92-11.77-6.67-14.02-8.63-4.27-3.71-8.03-14.81-8.33-17.64-.79-7.73-2.45-26.85-.31-34.64,3.46-12.66-.02-33,11.68-43,20.26-17.3,19.29-42.82,21.55-55.54,2.27-12.71,6.42-25.65,11.56-35.71,5.13-10.07,18.07-22.1,20.83-22.91"></path>
      <path class="st11" d="M301.62,64.74c-3.87-.2-7.33.31-11.84-5.69-3.25-4.34-6.73-7.37-8.76-7.74-2.04-.36,4.77-5.57,10.75-3.64,3.95,1.27,4.52,1.21,9.35,1.35,3.09.09,7.4,2.38,9.34,1.63,0,0,2.58-.68,8.27.71,4.32,1.06,6.84.71,2.04,2.03-4.81,1.31-5.94,4.74-10.37,7.43-3,1.83-7.49,3.98-8.78,3.91"></path>
      <path class="st11" d="M281.52,128.05c0,1.68-2.24,3.04-4.99,3.02-2.74,0-4.96-1.38-4.95-3.06,0-1.68,2.24-3.04,4.99-3.02,2.74.01,4.95,1.39,4.95,3.06"></path>
      <path class="st11" d="M286.56,138.6c.5,2.43-1.91,4.98-5.39,5.71-3.46.71-6.68-.67-7.2-3.1-.5-2.43,1.91-4.98,5.38-5.7,3.47-.72,6.7.67,7.21,3.1"></path>
      <path class="st11" d="M263.99,128.11c0,1.48-2.24,2.68-4.98,2.67-2.73-.02-4.97-1.23-4.95-2.71,0-1.48,2.24-2.68,4.98-2.66,2.75.01,4.97,1.23,4.95,2.71"></path>
      <path class="st11" d="M262.84,141.33c-.51,2.36-3.7,3.67-7.1,2.93-3.39-.74-5.75-3.25-5.24-5.61.51-2.36,3.69-3.67,7.09-2.93,3.41.74,5.75,3.25,5.25,5.61"></path>
      <path class="st1" d="M266.85,160.39c-4.65.03-10.24-2.08-11.12-2.07-3.13.01,22.53.52,22.53.52,2.57.97-9.1,1.54-11.41,1.55Z"></path>
    </g>
    <g>
      <path class="st14" d="M280.82,93.05c8.41-7.09,10.68-7.51,12.94-20.46,2.27-12.96-.71-12.91-1.48-16.73-.78-3.83,7.76.37,10.31.91,2.55.54,7.02-3.76,4.48,3.84-2.52,7.61-1.03,7.56-4.25,14.41-3.2,6.85-6.48,21.87-12.97,24.89l-9.03-6.87Z"></path>
      <path class="st6" d="M280.82,93.05c8.41-7.09,10.68-7.51,12.94-20.46,2.27-12.96-.71-12.91-1.48-16.73-.78-3.83,7.76.37,10.31.91,2.55.54,7.02-3.76,4.48,3.84-2.52,7.61-1.03,7.56-4.25,14.41-3.2,6.85-6.48,21.87-12.97,24.89l-9.03-6.87Z"></path>
      <path class="st15" d="M259.83,79.28s-3.97,2.22-5.95,6.53c-1.97,4.32-2.63,7.28-2.79,10.44-.17,3.34-4.58,5.83-4.95,8.32-.9,6.03,1.32,5.84-.14,10.35-1.48,4.5-13.37,20.6-16.06,29.69-2.28,7.74-17.86,32.26-21.37,39.2-3.26,6.44-10.23,20.39-10.92,25.55-.68,5.15-7.84,20.16-10.12,26.19-2.29,6.03-3.05,12.78-1.93,16.59,1.12,3.8-2.21,11.41-3.24,15.38-1.05,3.98-.13,5.82-.75,9.26-.61,3.45-4.32,12.05-4.67,15.71-.35,3.67,1.48,11.95,1.76,16.99.28,5.06-2.22,16.19-2.34,19.59-.14,3.4.64,3.8.69,6.7.06,2.89-.35,4.62.62,7.68.96,3.04.72,3.97,2.15,7.51,1.65,4.07,1.14,3.99,2.56,8.45,1.43,4.46,1.13,6.17,5.04,8.91,3.9,2.75,11,3.46,14.53,4.8,3.52,1.34,5.7,3.77,9.68,4.8,3.98,1.05,5.07,2.14,8.65,1.78,3.58-.38,6.75-2.63,11.06-3.08,4.3-.44,13.97,4.19,19.58,3.62,5.52-.57,8.89-6.55,13.61-7.74,4.71-1.22,9.8.06,17.11-1.77,5.36-1.35,34.34-24.81,36.1-28.86,1.75-4.06.66-6.48,2.62-9.7,1.6-2.61,8.93-9.62,11.28-12.76,2.33-3.15,2.11-7.72,3.7-11.02,1.59-3.31,8.03-18.24,10.26-22.57,2.22-4.35,2.7-8.98,2.69-13.82-.02-4.83-.96-8.12-.54-13.49.41-5.36-.58-13.85-2.17-17.55-1.59-3.71-2.33-6.16-7.22-12.09-4.27-5.16-3.07-16.35-3.1-23.6-.02-7.25-4.18-13.71-4.97-18.95-.79-5.24-3.57-28.12-7.9-34.49-4.84-7.11-7.95-9.1-10.1-13.47-2.14-4.38-1.19-6.9-2.66-11.82-1.47-4.93.27-6.79-2.22-12.1-2.47-5.3-5.81-7.13-7.8-10.08-2-2.94-1.45-4.69-5.05-6.73-3.6-2.05-10.14-4.52-13.31-7.1-3.17-2.58-7.67-8.66-10.12-10.2-5.31-3.33-11.27-1.01-11.27-1.01"></path>
      <path class="st14" d="M252.38,120.54c-4.81,0-4.04,4.61-7.32,7.32-2.74,2.27-3.23-3.39-6.01,1.11-3.87,6.28-7.18,11.71-8.72,16.93-2.26,7.62-17.6,31.78-21.05,38.6-3.21,6.33-10.09,20.09-10.75,25.16-.67,5.07-7.73,19.85-9.98,25.78-2.25,5.95-3,12.59-1.9,16.35,1.11,3.74-2.18,11.21-3.2,15.14-1.03,3.91-.12,5.72-.73,9.12-.6,3.39-4.25,11.87-4.6,15.48-.34,3.6,1.44,11.76,1.71,16.73.28,4.96-2.16,15.92-2.29,19.28-.14,3.36.62,3.75.68,6.6.05,2.85-.35,4.56.61,7.56.95,3,.7,3.91,2.12,7.41,1.62,4,1.12,3.94,2.52,8.31,1.41,4.38,1.1,6.08,4.96,8.79,3.85,2.69,10.83,3.4,14.3,4.71,3.47,1.31,5.62,3.72,9.54,4.74,3.92,1.03,4.98,2.11,8.52,1.75,3.53-.36,6.64-2.59,10.89-3.03,4.24-.44,13.76,4.12,19.3,3.55,5.43-.55,8.76-6.43,13.4-7.62,4.63-1.19,9.65.08,16.85-1.73,5.28-1.33,33.82-24.44,35.55-28.42,1.73-3.99.65-6.37,2.59-9.56,1.58-2.57,8.8-9.48,11.09-12.57,2.31-3.08,2.09-7.59,3.65-10.84,1.58-3.26,7.92-17.96,10.1-22.23,2.18-4.27,2.66-8.85,2.65-13.61-.02-4.76-.95-8-.54-13.28.42-5.29-.57-13.64-2.13-17.28-1.57-3.65-2.3-6.08-7.12-11.91-4.2-5.08-3.03-16.1-3.05-23.24-.01-7.14-4.13-13.5-4.89-18.66-.77-5.16-3.52-27.7-7.79-33.97-4.76-7.01-7.82-8.96-9.93-13.27-1.18-2.4-.7-4.05-1.63-6.21-1.01-2.35-6.7-10.92-15.15-11.52-5.37-.39-12.23,12.73-21.14,10.9-9.64-1.98-7.08-12.33-21.1-12.34"></path>
      <path class="st4" d="M189.39,324.33c-1.32,8.36-1.07,8.34-.53,13.6.54,5.27,2.54,8.21,2.96,10.1"></path>
      <path class="st4" d="M193.59,353.41c1.25,2.78,2.74,5.52,4.8,6.77"></path>
      <path class="st4" d="M219.29,365.75c2.94.42,5.6-2.03,9.16-2.63"></path>
      <path class="st4" d="M236.92,363.18c1.95.08,6.03,2.08,8.73,2.53"></path>
      <path class="st4" d="M254.25,367c1.48-2.09,1.17-2.82,3.68-4.26"></path>
      <path class="st4" d="M264.55,361.25c3.19.5,4.77,1.78,7.67,1.73"></path>
      <path class="st4" d="M188.75,318.11c.58-3.68-.74-4.75-.94-9.09-.2-4.34-.02-2.9-.21-5.79"></path>
      <path class="st4" d="M240.19,138.49c-.51,1.99-3.47,6.16-4.74,7.99"></path>
      <path class="st4" d="M234.18,148.29c-1.52,1.61-.71.07-1.52,1.61"></path>
      <path class="st4" d="M231.85,151.43c-1.14,3.02-6.41,10.58-7.62,12.88-1.22,2.3-2.88,4.89-4.63,9.18-1.74,4.29-8.89,14.7-9.71,18.41"></path>
      <path class="st4" d="M205.74,198.61c-1.31,3.76-3.35,9.77-4.54,12.31-1.19,2.54-2.7,4.39-3.43,6.64"></path>
      <path class="st4" d="M197.03,219.82c-.93,2.75-.77,2.01-1.52,4.02"></path>
      <path class="st4" d="M193.41,229.38c-1.41,2.8-1.99,6.5-2.49,8.71"></path>
      <path class="st4" d="M190.43,240.33c-1.52,4.02-1.23,2.05-1.52,4.02"></path>
      <path class="st4" d="M188.77,247.54c-.61,1.15-.69.64-.03,2.26.77,1.92.35,3.78.65,1.63"></path>
      <path class="st4" d="M189.35,253.13c-.34,1.61-1.2,6.18-1.27,7.87"></path>
      <path class="st4" d="M187.6,263.35c-.49,1.14-3.62,5.69-3.4,6.76.21,1.07-.22,1.11-.19,2.19.02,1.09.47.92.44,2.25-.03,1.33.49,1.41.16,3.74"></path>
      <path class="st4" d="M184.02,281.49c-.44,1.62-.93,1.55-.89,3.11"></path>
      <path class="st4" d="M182.5,286.84c-.2,1.48-2.07,12.79-1.03,17.04,1.05,4.24,2.5,6.15,2.21,8.22"></path>
      <path class="st4" d="M183.38,314.2c-.35,2.45-2.18,9.29-2.27,12.08"></path>
      <path class="st4" d="M180.83,330.53c-.45,1.49.25,2.39.42,4.06.17,1.68.48,2.37.35,3.48"></path>
      <path class="st4" d="M182.69,341.58c-.05,1.82.05,5.2,2.01,8.87,1.94,3.66.7.89.89,2.32"></path>
      <path class="st4" d="M186.93,357.71c-.13,1.48.53,3.22,1.43,4.93.9,1.72.34.93,2.19,2.56,1.86,1.62,1.24.48,3.36,1.46"></path>
      <path class="st4" d="M199.68,367.92c1.08-.01,3.05.29,4.55.79,1.51.5.62,1.32,2.12,1.77"></path>
      <path class="st4" d="M219.44,375.54c2.42,0,6.06-1.11,7.65-2.12"></path>
      <path class="st4" d="M230.45,371.99c1.2-.13,1.47-1,2.43-1.09"></path>
      <path class="st4" d="M235.35,372.57c1.83.17,3.78,1.42,6.37,1.88,2.59.46,5.32,1.16,6.87.88"></path>
      <path class="st4" d="M252.69,374.17c1.29-.38,3.94-4.03,5.89-5.08,1.95-1.05,3.31-1.91,4.65-1.92"></path>
      <path class="st4" d="M268.25,365.57c.87.15,6.57,1.49,8.24,1.27,1.67-.24,1.63-.6,2.83-.72"></path>
      <path class="st4" d="M283.58,363.99c.66-.55.95-1.31,2.14-1.55"></path>
      <path class="st4" d="M294.91,355.45c.81-.44,1.83-2.25,2.65-2.46"></path>
      <path class="st4" d="M298.81,352.15c.44-.42,4.4-4.21,6.08-5.59,1.66-1.38,7.58-8.64,8.25-9.08"></path>
      <path class="st4" d="M314.89,334.4c.48-1.25,1.18-3.85,2.04-4.8.88-.94,1.21-1.21,1.35-2.19"></path>
      <path class="st4" d="M322.25,322.52c.67-1.76,2.78-3.55,3.94-5.23,1.16-1.7,4.36-8.19,4.44-9.78"></path>
      <path class="st4" d="M334.16,300.64c.06-1.7,2.16-4.83,3.13-7.1.97-2.28,3.59-9.8,3.09-11.09"></path>
      <path class="st4" d="M342.34,270.77c-.14-1.43.25-5.82-.81-7.9-1.05-2.06-.65-2.96-.29-4.68"></path>
      <path class="st4" d="M340.88,252.92c-.38-1.31.61-4.55-.06-6.29-.66-1.75-3.46-8.35-5.16-10.47-1.69-2.13-3.01-7.79-3.19-9.58"></path>
      <path class="st4" d="M331.24,214.6c.12-2.3-.24-5.89.02-7.98.27-2.08.57-5.13.09-6.17"></path>
      <path class="st4" d="M327.9,190.4c-1.12-1.45-1.05-6.65-.8-7.77"></path>
      <path class="st4" d="M325.82,175.26c.26-1.36-2.84-15.06-4.63-17.17"></path>
      <path class="st4" d="M319.16,154.79c-.76-1.5-7.01-10.52-7.37-11.7"></path>
      <path class="st4" d="M308.4,146.58c1.18,2.06,5.25,7.56,5.86,8.71"></path>
      <path class="st4" d="M315.73,160.22c.49,1.28,1.01,1.59,1.17,2.65"></path>
      <path class="st4" d="M328.62,217.29c-.43,1.74.78,14.67,1.22,17.89.46,3.22,2.32,7.14,3.03,9.36.71,2.22,1.47,11.22.34,13.5"></path>
      <path class="st4" d="M326.91,235.96c.16,1.56,2.17,4.73,1.88,6.57"></path>
      <path class="st4" d="M288.69,356.08c-1.5.76-.5-.19-1.5.76"></path>
      <path class="st4" d="M287.62,353.28c-1.28,1.1-1.49,1.49-2.69,1.62"></path>
      <path class="st4" d="M286.61,351.09c-.56.42-2.07,1.06-3.13.8"></path>
      <path class="st4" d="M277.97,361.13c-1.06.39-3.34.46-4.66.02"></path>
      <path class="st4" d="M270.18,360.67c-.52-.34-.55-.67-1.29-.79"></path>
      <path class="st4" d="M267.63,359.46c-.85-.03-1.23-.12-2.07-.15"></path>
      <path class="st4" d="M274.15,358.18q-.61-.06-1.16-.18"></path>
      <path class="st4" d="M267.34,356.7c-.58.19,1.97.29,2.45.23"></path>
      <path class="st4" d="M273.73,353.98c-.6.07-.2.5-1.15.13"></path>
      <path class="st4" d="M270.97,354.28c-.74-.05-1.35-.22-1.82-.46"></path>
      <path class="st4" d="M267.89,353.34c-.61-.05-3-.56-3.58-.31"></path>
      <path class="st4" d="M272.23,350.72c-.52.18-1.88.35-2.49.26"></path>
      <path class="st4" d="M267.2,350.6c-.48.04-1.65.38-2.35.24"></path>
      <path class="st4" d="M261.46,361.1c-1.13-.05-.26-.14-1.13-.05"></path>
      <path class="st4" d="M246.05,361.68c-1.16-.24-6.22-2.39-7.2-2.64-1.01-.27-.49.01-1.12.11"></path>
      <path class="st4" d="M245.57,357.1c-.87.07-1.82-.48-2.48-.6"></path>
      <path class="st4" d="M241.4,355.7c-.73-.04-1.8-.25-2.63-.41"></path>
      <path class="st4" d="M251.94,353.94c-.46.12-.87.16-1.31.12"></path>
      <path class="st4" d="M246.07,353.69c-.48.01-1.12-.41-1.7-.42-.56-.03-.78-.18-1.22-.11"></path>
      <path class="st4" d="M241.82,352.35c-.45-.07-2.05-.26-2.37-.27"></path>
      <path class="st4" d="M244.68,350.37c-.45-.08-1.31-.08-1.43-.14"></path>
      <path class="st4" d="M242.22,349.66c-.32.03-.73-.09-.98-.19"></path>
      <path class="st4" d="M226.41,354.3c.66.18,2.94.72,3.56.63"></path>
      <path class="st4" d="M224.08,355.95c.78.53,2.62.38,3.68.53"></path>
      <path class="st4" d="M229.36,356.33c.64-.06.89.03,1.39.14"></path>
      <path class="st4" d="M220.55,360.74c.82.2,6.5-1.35,8.13-1.4,1.64-.04.35-.15.99-.1"></path>
      <path class="st4" d="M232.89,367.02c-.68-.17-1.75-.47-2.92.29-1.17.78-5.11,3.19-6.38,3.4"></path>
      <path class="st4" d="M237.34,367.17c.49.07,1.49-.2,2.06.03"></path>
      <path class="st4" d="M241.75,368.85c.68.28,3.61,2.4,4.39,2.61.8.21.37.2.8.21"></path>
      <path class="st4" d="M234.02,370.15c.75.18,1.91-.18,2.54,0,.62.19,1.78.79,2.4.96.62.18,2.59,1.17,3.17,1.46.57.27,2.4,1.01,3.13,1.05"></path>
      <path class="st4" d="M188.93,357.53c.06.58,1.59,5.98,3.17,6.73"></path>
      <path class="st4" d="M193.24,364.75c.58.35.45.21,1.14.45"></path>
      <path class="st4" d="M190.15,354.72c.5.74.31,1.36.6,1.82"></path>
      <path class="st4" d="M191.41,357.54c.38.77.28,3.31,1.12,4.45.84,1.13.51.8.84,1.13"></path>
      <path class="st4" d="M195.54,347.04c.13.77,1.34,4.22,2.08,5.58.75,1.38,2.93,4.34,3.75,4.75"></path>
      <path class="st4" d="M199.2,344.48c.25.7.81,2.64,1.68,4.01.86,1.36,2.13,2.55,2.99,3.17"></path>
      <path class="st4" d="M201.46,342.38c.23.46.58,2.67,1.04,3.52.44.86,2.2,2.68,2.79,3.04"></path>
      <path class="st4" d="M202.9,341.08c.18.52.59,1.57,1.09,2.43.51.85.85,1.12,1.44,1.61"></path>
      <path class="st4" d="M204.74,338.36c.25.69.45,1.4,1.03,2.42.6,1.04.2.71,1.07,1.54"></path>
      <path class="st4" d="M206.35,337.53c.14.82.33.92.87,1.42"></path>
      <path class="st4" d="M207.88,340.56c.1.49-.26.45.48,1.1"></path>
      <path class="st4" d="M207.52,335.59c.18.34.73,2.17,1.03,2.74.29.57.95,1.05,1.49,1.57"></path>
      <path class="st4" d="M323.58,224.86c-.07.81-.71,3.3-.64,4.02"></path>
      <path class="st4" d="M323.12,230.63c.12,1.12.83,1.69.81,2.82,0,1.13.61,2.35.87,3.22"></path>
      <path class="st4" d="M326.18,228.87c-.26.67-.12.49-.17,1.47"></path>
      <path class="st4" d="M186.28,342.33c.32,1.15,1.65,7.86,2.63,8.65"></path>
      <path class="st4" d="M196.67,319.81c.09.95-.81,11.93-.16,13.47"></path>
      <path class="st4" d="M192.93,321.8c-.01.8-.24,1.71-.31,2.2"></path>
      <path class="st4" d="M192.83,326.01c.15,1.11.51,1.71.51,2.28"></path>
      <path class="st4" d="M193.16,329.27c-.18.98-.22.58-.18.98"></path>
      <path class="st4" d="M199.51,318.46c-.04.42.02.24.1,1.05"></path>
      <path class="st4" d="M199.77,321.41c.11.72-.19.51-.33,1.32"></path>
      <path class="st4" d="M199.05,323.91c0,1.13.16.56.15,1.44"></path>
      <path class="st4" d="M192.92,299.23c-.13,1.06-.6,3.45-.46,4.96.17,1.52,3.31,6.27,3.36,7.47"></path>
      <path class="st4" d="M201.7,307.68c-.09.73-.01,1.38.2,1.9.23.55.75.33.92,1.04"></path>
      <path class="st4" d="M203.19,307.2c.04.4.14,1.35.51,1.8.37.44.55.52.74.97"></path>
      <path class="st4" d="M188.66,277.18c0,.81-.5,1.5-.42,2.22"></path>
      <path class="st4" d="M188.35,280.59c-.34.6-.23,1.69-.27,1.99"></path>
      <path class="st14" d="M167.11,253.2c.11,1.85-.49,3.41-1.36,3.46l-4.36.28c-.87.06-1.67-1.4-1.79-3.26l-2.14-33.37c-.12-1.86.5-3.41,1.37-3.47l4.36-.28c.87-.06,1.67,1.4,1.78,3.26l2.15,33.38Z"></path>
      <path class="st4" d="M167.11,253.2c.11,1.85-.49,3.41-1.36,3.46l-4.36.28c-.87.06-1.67-1.4-1.79-3.26l-2.14-33.37c-.12-1.86.5-3.41,1.37-3.47l4.36-.28c.87-.06,1.67,1.4,1.78,3.26l2.15,33.38Z"></path>
      <line class="st4" x1="167.26" y1="255.55" x2="159.87" y2="255.19"></line>
      <line class="st4" x1="159.73" y1="252.88" x2="167.11" y2="253.2"></line>
      <line class="st4" x1="166.98" y1="251.31" x2="159.61" y2="251.02"></line>
      <line class="st4" x1="159.45" y1="248.64" x2="166.74" y2="247.44"></line>
      <line class="st4" x1="166.64" y1="245.96" x2="158.83" y2="245.34"></line>
      <line class="st4" x1="158.95" y1="243.67" x2="166.47" y2="243.19"></line>
      <line class="st4" x1="166.34" y1="241.16" x2="158.91" y2="240.29"></line>
      <line class="st4" x1="158.8" y1="238.49" x2="166.14" y2="238.21"></line>
      <line class="st4" x1="166.04" y1="236.51" x2="158.44" y2="235.74"></line>
      <line class="st4" x1="158.33" y1="233.95" x2="165.85" y2="233.46"></line>
      <line class="st4" x1="165.75" y1="232.12" x2="158.18" y2="231.46"></line>
      <line class="st4" x1="158.04" y1="229.33" x2="165.55" y2="228.84"></line>
      <line class="st4" x1="165.47" y1="227.51" x2="158.04" y2="226.73"></line>
      <line class="st4" x1="157.93" y1="225.03" x2="165.31" y2="225.11"></line>
      <line class="st4" x1="165.21" y1="223.51" x2="157.87" y2="223.99"></line>
      <line class="st4" x1="157.77" y1="222.26" x2="165.02" y2="220.66"></line>
      <path class="st15" d="M150.4,14.54s-9.01,20.58.23,133.87l2.16,33.68.23,3.75,1.9,29.62c.13,1.86,1.21,3.3,2.42,3.23l6.12-.39c1.22-.08,2.11-1.65,1.98-3.5l-1.9-29.63-.23-3.76-9.7-151.36c-.55-8.65-1.98-15.59-3.2-15.51"></path>
      <path class="st2" d="M150.4,14.54s-9.01,20.58.23,133.87l2.16,33.68.23,3.75,1.9,29.62c.13,1.86,1.21,3.3,2.42,3.23l6.12-.39c1.22-.08,2.11-1.65,1.98-3.5l-1.9-29.63-.23-3.76-9.7-151.36c-.55-8.65-1.98-15.59-3.2-15.51Z"></path>
      <path class="st14" d="M150.77,16.47s-6.98,20.14,1.16,133.76l2.16,33.77.24,3.77,2.27,29.94c.11,1.86.28,3.1.8,3.06l2.64-.17c.52-.03.86-1.57.73-3.44l-1.9-29.69-.24-3.76-7.95-151.64c-.56-8.67.22-14.71.09-15.6"></path>
      <path class="st14" d="M175.93,218.07c.06,1.04-6.82,2.34-15.37,2.89-8.57.55-15.55.14-15.62-.91-.07-1.04,6.82-2.34,15.37-2.88,8.57-.55,15.55-.14,15.62.9"></path>
      <path class="st4" d="M175.93,218.07c.06,1.04-6.82,2.34-15.37,2.89-8.57.55-15.55.14-15.62-.91-.07-1.04,6.82-2.34,15.37-2.88,8.57-.55,15.55-.14,15.62.9Z"></path>
      <path class="st16" d="M219.28,219.1c-16.84,12.84-12.86,19.65-32.82,22.43-19.96,2.78-18.97-8.5-29.42-6.47-8.39,1.64-8.22,9.36,4.08,11.51,12.31,2.15,16.3,2.58,28.66-.05,14.93-3.17,15.09-3.36,24.78-13.66,9.68-10.3,4.71-13.77,4.71-13.77"></path>
      <path class="st16" d="M295.22,294.44c-.32,6.97-4.09,40.04-1.98,48.61,3.08,12.53-1.49,29.57,2.5,37.33,3.43,6.64,3.3,5,8.92,9.02,3.86,2.77,11.13,7.6,5.39,10.69,0,0-3.79.44-9.32-1.29-10.95-3.45-13.52-4.99-13.07-15.17.45-10.18-5.27-24.36-4.54-40.66.74-16.29-3.04-29.48-2.78-35.29.26-5.8,14.88-13.24,14.88-13.24"></path>
      <path class="st16" d="M221.16,306.95c-.03,6.98,2,20.33,1.94,33.24-.05,12.92.03,29.62-4.34,37.17-3.74,6.47-3.53,4.82-9.34,8.56-4,2.57-11.5,7.03-5.92,10.41,0,0,3.77.62,9.37-.84,11.11-2.91,13.75-4.32,13.8-14.5.05-10.2,7.54-24.92,7.6-41.24.08-16.3,5.38-27.31.97-31.1-3.21-2.76-14.08-1.71-14.08-1.71"></path>
      <path class="st16" d="M296.9,252.86c20.88-3.55,20.15-9.82,39.13-3.04,18.96,6.79,15.26,12.78,23.41,17.78,7.29,4.45,13.16-7.09,1.71-12.09-11.87-5.2-15.6-7.6-25.41-13.26-15.7-9.05-14.93-4.02-28.29.61-13.36,4.63-10.56,10-10.56,10"></path>
      <path class="st16" d="M270.01,116.64c5.09-1.49,9.89-.83,16.65,3.37,6.74,4.21,4.12,25.15,6.84,47.02,2.73,21.87,22.28,27.54,25.25,37.66,1.54,5.24,2.7,1.45,5.47,13.31,2.55,10.87,4.96,29.1,9.36,38.03,3.79,7.69.12,7.76-.04,19.6-.13,9.87-2.21,9.62-8.28,22.39-6.08,12.77-5.84,11.59-14.54,19.64-8.69,8.04-7.19,9.36-24.68,17.97-12.5,6.15-16.85,11.79-33.36,13.02-16.83,1.25-19.12-3.8-28.92-5.71-13.83-2.71-16.01-4.8-21.57-12.09-8.35-10.93-7.43-24.33-12.45-41.49-2.68-9.16.66-15.82,2.73-24.19,3.38-13.61,14.62-28.07,25.58-39.87,10.98-11.8,14.45-31.37,16.58-45.05,2.14-13.68,9.17-28.45,14.31-39.22,5.13-10.78,18.27-23.56,21.09-24.39"></path>
      <path class="st14" d="M269.88,116.68c4.97-1.45,9.62-.9,16.14,2.97,6.51,3.86,2.72,27.99,5.11,48.46,2.41,20.46,22.67,29.85,25.43,39.31,3.55,12.08,6.98,15.39,9.37,23.59,0,0,1.76,17.17,4.01,24.86,2.24,7.68-.49,6.59-.78,17.68-.24,9.26-2.11,7.82-8.17,19.86-6.05,12.03-6.92,11.72-15.47,19.36-8.53,7.63-4.68,7.19-21.8,15.46-12.21,5.9-9.68,8.46-25.12,12.99-15.45,4.52-17.07,2.72-29.23-3.87-4.44-2.4-17.72-.17-23.62-12-9.21-18.54-5.13-14.5-9.52-29.49-1.96-6.68-5.22-15.25-2.49-23.22.68-1.96,7.08-29.56,18.75-39.62,20.23-17.44,24.12-37.47,26.35-50.31.79-4.55.9-24.35,10.25-42.94,5.11-10.15,18.03-22.28,20.78-23.09"></path>
      <path class="st16" d="M264.65,92.65c4.96-1.45,9.66-.76,16.3,3.54,6.64,4.29,24.39,23.94,27.25,45.96,2.86,22.03-2.38,17.91.62,28.12,3.81,13.04,11.91,22.52,14.01,26.3,5.87,10.58,1.61,15.32,3.15,27.07,1.15,8.86,4.14,17.08,2.88,29.31-1.03,9.87-3.51,13.76-3.95,15.76-.72,3.29-6.11,14.6-16.34,21.98-5.91,4.26-7.12,16-18.04,19.84-17.36,6.11-14.76,11.6-32.02,18.5-6.96,2.79-14.58,9.78-29.2-1.57-9.39-7.27-16.39-6.11-22.04-11.01-10.42-9.05-9.96-30.66-10.98-36.45-4.38-24.54-2.52-23.85-.57-32.25,3.17-13.64,8.45-34.53,19.08-46.3,10.62-11.76,13.85-31.42,15.81-45.16,1.97-13.74,8.71-28.53,13.63-39.32,4.92-10.8,17.66-23.53,20.42-24.34"></path>
      <path class="st14" d="M267.1,91.84c5.15-1.51,9.94-1.05,16.59,2.61,6.66,3.66,24.11,20.88,26.24,40.82,2.11,19.94-1.65,25.11-1.51,31.45.22,9.47,4.03,18.33,8.29,24.83,5.12,7.83,8.47,50.37,2.02,62.23-6.45,11.86-9.6,12.1-18.55,19.69-8.94,7.61-2.89,12.72-20.68,21.11-12.69,5.97-14.98,10.21-30.97,14.9-16,4.69-15.62,12.11-28.05,5.89-4.54-2.27-15.53-14.39-17.28-23.51-1.49-7.73-.33-11.57-1.76-14.93-3.16-7.42-6.62-21.36-4.31-29.07,6.16-20.54,6.26-34.75,7.21-45.25,3-32.74,10.24-45.66,22.6-59.19,12.24-13.41,17.94-22.49,18.33-28.66.98-15.33,18.98-22.06,21.83-22.9"></path>
      <path class="st6" d="M267.1,91.84c5.15-1.51,9.94-1.05,16.59,2.61,6.66,3.66,24.11,20.88,26.24,40.82,2.11,19.94-1.65,25.11-1.51,31.45.22,9.47,4.03,18.33,8.29,24.83,5.12,7.83,8.47,50.37,2.02,62.23-6.45,11.86-9.6,12.1-18.55,19.69-8.94,7.61-2.89,12.72-20.68,21.11-12.69,5.97-14.98,10.21-30.97,14.9-16,4.69-15.62,12.11-28.05,5.89-4.54-2.27-15.53-14.39-17.28-23.51-1.49-7.73-.33-11.57-1.76-14.93-3.16-7.42-6.62-21.36-4.31-29.07,6.16-20.54,6.26-34.75,7.21-45.25,3-32.74,10.24-45.66,22.6-59.19,12.24-13.41,17.94-22.49,18.33-28.66.98-15.33,18.98-22.06,21.83-22.9Z"></path>
      <path class="st14" d="M266.92,99.69c4.96-1.45,9.61-.91,16.11,2.89,6.51,3.81,16.89,23.54,19,43.8,2.7,25.94,5.67,29.44,7.91,34.34,2.75,6.02,13.68,19.18,13.24,25.47,0,0-1.34,13.34-.08,21.21,1.54,9.58,2.59,8.57,2.63,15.15.07,9.16-.23,14.23-4.19,22-3.28,6.45-5.38,12.86-15.77,21.31-10.56,8.59-4.76,17-21.01,20.71-14.83,3.37-20.02,17.12-37.09,19.26-11.02,1.37-9.03-6.45-23.73-8.06-8.26-.92-11.77-6.67-14.02-8.63-4.27-3.71-8.03-14.81-8.33-17.64-.79-7.73-2.45-26.85-.31-34.64,3.46-12.66-.02-33,11.68-43,20.26-17.3,19.29-42.82,21.55-55.54,2.27-12.71,6.42-25.65,11.56-35.71,5.13-10.07,18.07-22.1,20.83-22.91"></path>
      <path class="st16" d="M301.62,64.74c-3.87-.2-7.33.31-11.84-5.69-3.25-4.34-6.73-7.37-8.76-7.74-2.04-.36,4.77-5.57,10.75-3.64,3.95,1.27,4.52,1.21,9.35,1.35,3.09.09,7.4,2.38,9.34,1.63,0,0,2.58-.68,8.27.71,4.32,1.06,6.84.71,2.04,2.03-4.81,1.31-5.94,4.74-10.37,7.43-3,1.83-7.49,3.98-8.78,3.91"></path>
      <path class="st16" d="M281.52,128.05c0,1.68-2.24,3.04-4.99,3.02-2.74,0-4.96-1.38-4.95-3.06,0-1.68,2.24-3.04,4.99-3.02,2.74.01,4.95,1.39,4.95,3.06"></path>
      <path class="st16" d="M286.56,138.6c.5,2.43-1.91,4.98-5.39,5.71-3.46.71-6.68-.67-7.2-3.1-.5-2.43,1.91-4.98,5.38-5.7,3.47-.72,6.7.67,7.21,3.1"></path>
      <path class="st16" d="M263.99,128.11c0,1.48-2.24,2.68-4.98,2.67-2.73-.02-4.97-1.23-4.95-2.71,0-1.48,2.24-2.68,4.98-2.66,2.75.01,4.97,1.23,4.95,2.71"></path>
      <path class="st16" d="M262.84,141.33c-.51,2.36-3.7,3.67-7.1,2.93-3.39-.74-5.75-3.25-5.24-5.61.51-2.36,3.69-3.67,7.09-2.93,3.41.74,5.75,3.25,5.25,5.61"></path>
      <path class="st6" d="M266.85,160.39c-4.65.03-10.24-2.08-11.12-2.07-3.13.01,22.53.52,22.53.52,2.57.97-9.1,1.54-11.41,1.55Z"></path>
    </g>
    <g>
      <path class="st8" d="M437.65,482.2h-2.92v2.92h2.92v-2.92ZM439.41,480.7v6.7h-1.76v-.64h-2.92v.64h-1.67v-6.87h5.97c-.39-.39-1.2-1.16-1.8-2.66-.47-1.16-.52-2.06-.56-2.66h-.86v-1.5h2.53c-.04.43-.04.6-.04.77,0,3.65,1.98,4.64,2.58,4.94l-1.46,1.29ZM428.93,479.37c0-.52.04-1.33-.17-2.23l1.25-.3c.17.77.26,1.55.26,2.32l-1.33.21ZM430.57,476.58h-2.15c-.04,1.25-.04,1.8-.04,3.09.86-.04,1.16-.04,2.19-.17v-2.92ZM435.5,475.59c-.13.09-.17.09-.17.13-.13.64-.73,3.01-1.8,4.42l-.9-.56v1.25q-.26.04-.56.04v4.51c0,1.8-1.12,2.02-2.4,2.06l-.69-1.8c.17,0,.56.04.99.04.39,0,.64-.26.64-.9v-3.69s-.47.04-.52.04v3.56h-1.25v-3.44c-.21,0-.26,0-.47.04-.04.9-.09,2.02-.39,3.52-.26,1.29-.47,1.85-.77,2.49l-1.63-.52c.99-2.02,1.25-3.18,1.29-5.41-.3,0-.39,0-.47.17,0,0-.17.17-.21.17-.09,0-.13-.09-.17-.43l-.09-1.46h.99c0-1.5,0-3.13-.04-4.64h1.42c.3-.52.52-1.16.6-1.76l1.63.26c.34.04.39.13.39.17s0,.13-.21.21c-.17.04-.21.04-.26.13-.04.17-.21.64-.39.99h1.93v3.86c.94-1.25,1.42-2.79,1.63-4.34l1.67.43c.13.04.3.09.3.26.09.04.04.09-.09.17"></path>
      <path class="st8" d="M456.72,481.6c.26.6.47.99.73,1.33.6-.52.94-.86,1.33-1.33h-2.06M459.64,478.9h-3.48c.04.17.13.73.17,1.12h3.31v-1.12ZM459.64,476.53h-3.61v.99h3.56v-.99h.04ZM454.36,478.9h-2.58v1.12h2.71c-.04-.52-.09-.77-.13-1.12M454.23,476.53h-2.45v.99h2.45c.04-.52.04-.56,0-.99M461.87,486.71c-.56.9-1.37.99-1.55.99-.47,0-1.29-.39-1.89-.86-.6-.47-1.12-1.03-1.42-1.37-1.72.94-3.18,1.55-6.57,1.98l-1.12-1.85c3.44-.13,5.07-.77,6.66-1.63-.39-.64-.73-1.25-1.07-2.4h-4.85v-6.57h4.25c0-.6,0-1.12.04-1.72l1.8.17c.26.04.39.04.39.17v.09s-.3.17-.34.21c-.09.04-.09.13-.09,1.12h5.32v6.57h-1.16l.47.52c.04.09.21.26.21.34,0,.13-.04.13-.34.13q-.17,0-.39.26c-.6.64-1.33,1.25-1.67,1.55.52.56,1.2,1.16,1.76,1.16s.77-.86,1.03-1.76l1.46,1.12c-.3.64-.6,1.25-.94,1.8"></path>
      <g>
        <path class="st13" d="M482.23,488.03c-.2,0-.38-.12-.46-.3l-.43-.99h-3.96c-.07.2-.25.34-.48.34h-1.67c-.28,0-.5-.22-.5-.5v-3.05c-.07-.01-.14-.04-.19-.08l-.31-.24v4.22c0,.28-.22.5-.5.5h-1.8c-.28,0-.5-.22-.5-.5v-9.66c0-.28.22-.5.5-.5h2.46c-.09-.22-.19-.44-.28-.63h-2.69c-.28,0-.5-.22-.5-.5v-1.42c0-.28.22-.5.5-.5h5.43v-.75c0-.14.06-.27.16-.37.09-.09.22-.13.34-.13.01,0,1.93.13,1.93.13.46,0,.81.28.81.67,0,.16-.06.29-.14.4h5.27c.28,0,.5.22.5.5v1.42c0,.28-.22.5-.5.5h-2.57c-.09.27-.17.5-.25.72h2.39c.28,0,.5.22.5.5v8.46c0,.65-.27,1.75-2.05,1.75h-.99ZM482,485.35c.12,0,.22,0,.36,0,.06,0,.11,0,.14,0,0-.03,0-3.11,0-3.11-.15.12-.32.21-.53.27.02.05.03.11.03.17v2.67ZM478.31,482.17c-.35-.31-.45-.77-.45-1.17v-.41c-.08.2-.25.34-.46.38-.02,0-.03.01-.04.01-.26.51-.5.89-.73,1.18h1.69ZM474.22,481.05c.29-.27.6-.63.88-1.14h-.88v1.14ZM480.96,480.07s.01-.09.02-.16h-.62v.16h.6ZM477.73,479.87c.05.05.09.11.13.19v-.19h-.13ZM479.22,477.32c.11-.22.21-.42.31-.63h-2.21c.09.19.18.4.26.63h1.63Z"></path>
        <path class="st14" d="M477.33,473.48l1.89.13c.13,0,.34.04.34.17,0,.09-.09.17-.3.3v.6h5.93v1.42h-2.96v.09c-.21.69-.39,1.12-.6,1.63h3.13v8.46c0,.86-.52,1.25-1.55,1.25h-.99l-.69-1.59v.3h-4.64v.34h-1.67v-3.74c-.17.13-.26.13-.39.21l-1.12-.86v5.24h-1.8v-9.66h3.18c-.17-.56-.43-1.12-.69-1.63h-3.01v-1.42h5.93v-1.25M480.29,476.19h-3.78c.26.47.47.9.73,1.63h2.28c.3-.56.52-.99.77-1.63M475.4,482.67h6.1v3.13c.43.04.56.04.86.04.47,0,.64-.04.64-.6v-5.84h.04-3.18v.9c0,.17.09.26.34.26h.86c.26,0,.39-.09.43-.77l1.29.52c-.09.69-.21,1.76-1.33,1.76h-1.85c-.94,0-1.25-.39-1.25-1.07v-1.63h-2.45l1.25.69s.26.13.26.26c0,.09-.04.17-.13.17-.26.09-.3.09-.39.3-.56,1.12-1.03,1.5-1.5,1.89M475.87,479.41h-2.15v2.62c.56-.34,1.55-.99,2.15-2.62M476.9,484.99h2.96v-.99h-2.96v.99M477.33,472.48c-.25,0-.5.1-.68.27-.2.19-.32.45-.32.73v.25h-4.93c-.55,0-1,.45-1,1v1.42c0,.47.33.87.76.97-.15.18-.25.41-.25.66v9.66c0,.55.45,1,1,1h1.8c.55,0,1-.44,1-.99.15.09.32.14.5.14h1.67c.3,0,.57-.13.75-.34h3.36l.3.69c.16.37.52.6.92.6h.99c2.36,0,2.55-1.72,2.55-2.25v-8.46c0-.3-.13-.56-.33-.75.44-.11.76-.5.76-.97v-1.42c0-.55-.45-1-1-1h-4.63c-.05-.62-.58-1.06-1.3-1.07l-1.86-.13s-.05,0-.07,0h0Z"></path>
      </g>
      <g>
        <path class="st13" d="M504.81,488.03c-.25,0-.46-.19-.5-.43h-4.59c-.04.24-.24.43-.5.43h-1.76c-.28,0-.5-.22-.5-.5v-3.28c-.24,1.22-.65,2.16-1.01,2.99l-.14.32c-.08.19-.27.3-.46.3-.06,0-.12,0-.17-.03l-1.76-.64c-.13-.05-.24-.16-.29-.29-.05-.13-.04-.28.02-.41.56-1.07,1.49-2.86,1.49-6.64v-4.55c0-.28.22-.5.5-.5h4.35v-1.17c0-.14.06-.27.16-.36.09-.09.22-.14.34-.14,0,0,2.14.13,2.14.13.45,0,.81.33.81.76,0,.29-.2.47-.31.57-.02.02-.07.06-.12.1v.17h5.43c.28,0,.5.22.5.5v1.67c0,.28-.22.5-.5.5h-4.84c-.05.2-.18.33-.31.42h4.93c.28,0,.5.22.5.5v1.67c0,.28-.22.5-.5.5h-4.95v.63h3.92c.28,0,.5.22.5.5v5.8c0,.28-.22.5-.5.5h-1.89ZM504.31,484.92v-1.02h-4.58v1.02h4.58ZM497.5,479.45c0,.67-.02,1.23-.07,1.78.01,0,2.5,0,2.5,0v-3.81h-2.44v2.03Z"></path>
        <path class="st14" d="M500,473.61l2.1.13c.17,0,.34.09.34.26,0,.09-.13.17-.21.26-.09.04-.21.13-.21.17v.9h5.93v1.67h-6.19l-.59-.13v.13h.59l.4.09c.17.04.47.09.47.26,0,.13-.13.17-.34.3v.77h5.45v1.67h-5.45v1.63h4.42v5.8h-1.89v-.43h-5.58v.43h-1.76v-5.8h2.96v-4.81h-3.44v2.53c0,1.8-.17,2.88-.52,4.68-.26,1.33-.73,2.32-1.12,3.22l-1.76-.64c.56-1.07,1.55-2.96,1.55-6.87v-4.55h4.85v-1.67M499.23,485.42h5.58v-2.02h-5.58v2.02M500,472.61c-.25,0-.5.1-.69.27-.2.19-.31.45-.31.73v.67h-3.85c-.55,0-1,.45-1,1v4.55c0,3.65-.89,5.37-1.43,6.4-.13.26-.15.56-.05.83.1.27.32.48.59.58l1.76.64c.11.04.23.06.34.06.39,0,.76-.23.92-.61l.14-.32s.03-.07.05-.11v.2c0,.55.45,1,1,1h1.76c.34,0,.64-.17.82-.43h3.94c.18.26.48.43.82.43h1.89c.55,0,1-.45,1-1v-5.8c0-.24-.08-.46-.22-.63h.26c.55,0,1-.45,1-1v-1.67c0-.23-.08-.44-.2-.6.25-.18.42-.48.42-.81v-1.67c0-.55-.45-1-1-1h-4.55c.03-.1.05-.21.05-.33,0-.69-.57-1.24-1.31-1.26l-2.08-.13s-.04,0-.06,0h0ZM498,477.92h1.44v2.81h-1.47c.02-.39.03-.81.03-1.28v-1.53h0ZM500.23,484.4h3.58v.02h-3.58v-.02h0Z"></path>
      </g>
      <path class="st12" d="M506.36,430.97h-11.94c-1.07,0-1.93-.86-1.93-1.93v-11.12c0-1.63-1.33-2.92-2.92-2.92h-37.02c-1.07,0-2.02.56-2.53,1.5l-6.23,11.17c-.39.69-.47,1.46-.26,2.23s.69,1.37,1.37,1.76c.69.39,1.46.47,2.23.26.77-.21,1.37-.73,1.76-1.37l4.81-8.67c.34-.6.99-.99,1.72-.99h29.29c1.07,0,1.93.86,1.93,1.93v11.12c0,1.63,1.33,2.92,2.92,2.92h9.71c.64,0,1.25.3,1.63.86.34.52.43,1.2.21,1.8l-1.85,4.77c-.3.73-.99,1.2-1.76,1.25-16.1.34-36.37.52-40.58-.21l-1.67-.3c-17.82-3.05-20.57-3.52-30.62-19.24-.56-.86-1.46-1.33-2.45-1.33H19.86c-1.07,0-1.93-.86-1.93-1.93v-42.51c0-1.07.86-1.93,1.93-1.93h18.64c1.76,0,2.96-1.2,2.96-2.96s-1.2-2.96-2.96-2.96H14.96c-1.59,0-2.96,1.37-2.96,2.96v109.59c0,1.67,1.25,2.88,2.96,2.88s2.96-1.2,2.96-2.88v-52.48c0-1.07.86-1.93,1.93-1.93h399.58c.64,0,1.25.34,1.63.86,10.48,15.76,15.72,16.66,33.11,19.62l1.67.3c4.98.86,27.35.69,44.96.21,1.2-.04,2.23-.77,2.66-1.85l5.37-13.7.3-.86.17-.94c0-.6-.17-1.2-.56-1.72-.6-.77-1.46-1.25-2.4-1.25"></path>
      <path class="st12" d="M71.65,487.48h-.52c-5.71,0-10.39-4.59-10.39-10.35v-24.52c0-1.72,1.29-2.58,2.53-2.58s2.58.86,2.58,2.58v24.52c0,2.83,2.4,5.28,5.32,5.28h.47c2.83,0,5.28-2.45,5.28-5.28v-24.52c0-1.72,1.29-2.58,2.58-2.58s2.58.86,2.58,2.58v24.52c-.09,5.75-4.72,10.35-10.44,10.35"></path>
      <path class="st12" d="M130.18,487.48h-.6c-.69,0-2.02-.17-2.88-2.15l-10.18-22.97v22.59c0,1.72-1.25,2.49-2.49,2.49s-2.62-.82-2.62-2.49v-32.21c0-1.42,1.03-2.66,2.71-2.66h.6c.64,0,1.93,0,2.71,1.85l10.18,22.97v-22.24c0-1.72,1.25-2.58,2.49-2.58s2.62.86,2.62,2.58v32.29c0,1.33-1.12,2.53-2.53,2.53"></path>
      <path class="st12" d="M172.56,459.44l-4.29,14.13h8.63l-4.34-14.13M183.13,487.48c-1.03,0-2.02-.52-2.45-1.8l-2.19-7.04h-11.81l-2.15,7.04c-.39,1.29-1.5,1.8-2.49,1.8-1.55,0-2.62-1.03-2.62-2.36,0-.21.04-.47.09-.86l10.13-32.16c.43-1.33,1.72-2.02,2.92-2.02,1.29,0,2.49.6,2.92,2.02l10.13,32.16c.04.39.09.64.09.82,0,1.42-1.03,2.4-2.58,2.4"></path>
      <path class="st12" d="M228.22,476.32c0-3.05-2.45-5.54-5.28-5.54h-5.37v11.34h5.37c2.96,0,5.28-2.45,5.28-5.32v-.47M222.94,455.45h-5.37v10.26h5.37c2.75,0,4.85-2.23,4.85-5.45,0-2.96-1.85-4.81-4.85-4.81M222.94,487.18h-7.94c-1.42,0-2.58-1.25-2.58-2.58v-31.69c0-1.33,1.12-2.58,2.58-2.58h7.94c5.8,0,9.96,4.21,9.96,9.92,0,3.13-1.29,6.05-3.78,7.82,2.49,1.85,4.21,5.02,4.21,8.2v.47c0,5.8-4.64,10.44-10.39,10.44"></path>
      <path class="st12" d="M264.46,487.48c-1.29,0-2.58-.82-2.58-2.49v-32.34c0-1.72,1.29-2.58,2.58-2.58s2.58.86,2.58,2.58v32.29c-.04,1.72-1.33,2.53-2.58,2.53"></path>
      <path class="st12" d="M315.48,487.48c-.86,0-1.76-.39-2.23-1.37l-7.52-15.5-3.78,5.5v8.85c0,1.72-1.29,2.49-2.58,2.49s-2.58-.82-2.58-2.49v-32.34c0-1.72,1.29-2.58,2.58-2.58s2.58.86,2.58,2.58v14.34l10.69-15.76c.52-.82,1.33-1.12,2.02-1.12,1.55,0,2.66,1.12,2.66,2.58,0,.52-.17,1.03-.43,1.42l-7.9,11.59,8.85,18.16c.17.43.26.82.26,1.16.04,1.37-1.07,2.49-2.62,2.49"></path>
      <path class="st12" d="M347.9,487.48c-1.29,0-2.58-.82-2.58-2.49v-32.34c0-1.72,1.29-2.58,2.58-2.58s2.58.86,2.58,2.58v32.29c0,1.72-1.29,2.53-2.58,2.53"></path>
    </g>
    <g>
      <path class="st13" d="M437.65,482.2h-2.92v2.92h2.92v-2.92ZM439.41,480.7v6.7h-1.76v-.64h-2.92v.64h-1.67v-6.87h5.97c-.39-.39-1.2-1.16-1.8-2.66-.47-1.16-.52-2.06-.56-2.66h-.86v-1.5h2.53c-.04.43-.04.6-.04.77,0,3.65,1.98,4.64,2.58,4.94l-1.46,1.29ZM428.93,479.37c0-.52.04-1.33-.17-2.23l1.25-.3c.17.77.26,1.55.26,2.32l-1.33.21ZM430.57,476.58h-2.15c-.04,1.25-.04,1.8-.04,3.09.86-.04,1.16-.04,2.19-.17v-2.92ZM435.5,475.59c-.13.09-.17.09-.17.13-.13.64-.73,3.01-1.8,4.42l-.9-.56v1.25q-.26.04-.56.04v4.51c0,1.8-1.12,2.02-2.4,2.06l-.69-1.8c.17,0,.56.04.99.04.39,0,.64-.26.64-.9v-3.69s-.47.04-.52.04v3.56h-1.25v-3.44c-.21,0-.26,0-.47.04-.04.9-.09,2.02-.39,3.52-.26,1.29-.47,1.85-.77,2.49l-1.63-.52c.99-2.02,1.25-3.18,1.29-5.41-.3,0-.39,0-.47.17,0,0-.17.17-.21.17-.09,0-.13-.09-.17-.43l-.09-1.46h.99c0-1.5,0-3.13-.04-4.64h1.42c.3-.52.52-1.16.6-1.76l1.63.26c.34.04.39.13.39.17s0,.13-.21.21c-.17.04-.21.04-.26.13-.04.17-.21.64-.39.99h1.93v3.86c.94-1.25,1.42-2.79,1.63-4.34l1.67.43c.13.04.3.09.3.26.09.04.04.09-.09.17"></path>
      <path class="st13" d="M456.72,481.6c.26.6.47.99.73,1.33.6-.52.94-.86,1.33-1.33h-2.06M459.64,478.9h-3.48c.04.17.13.73.17,1.12h3.31v-1.12ZM459.64,476.53h-3.61v.99h3.56v-.99h.04ZM454.36,478.9h-2.58v1.12h2.71c-.04-.52-.09-.77-.13-1.12M454.23,476.53h-2.45v.99h2.45c.04-.52.04-.56,0-.99M461.87,486.71c-.56.9-1.37.99-1.55.99-.47,0-1.29-.39-1.89-.86-.6-.47-1.12-1.03-1.42-1.37-1.72.94-3.18,1.55-6.57,1.98l-1.12-1.85c3.44-.13,5.07-.77,6.66-1.63-.39-.64-.73-1.25-1.07-2.4h-4.85v-6.57h4.25c0-.6,0-1.12.04-1.72l1.8.17c.26.04.39.04.39.17v.09s-.3.17-.34.21c-.09.04-.09.13-.09,1.12h5.32v6.57h-1.16l.47.52c.04.09.21.26.21.34,0,.13-.04.13-.34.13q-.17,0-.39.26c-.6.64-1.33,1.25-1.67,1.55.52.56,1.2,1.16,1.76,1.16s.77-.86,1.03-1.76l1.46,1.12c-.3.64-.6,1.25-.94,1.8"></path>
      <path class="st13" d="M479.86,484.01h-2.96v.99h2.96v-.99ZM476.51,476.19c.26.47.47.9.73,1.63h2.28c.3-.56.52-.99.77-1.63h-3.78ZM483.04,479.41h-3.18v.9c0,.17.09.26.34.26h.86c.26,0,.39-.09.43-.77l1.29.52c-.09.69-.21,1.76-1.33,1.76h-1.85c-.94,0-1.25-.39-1.25-1.07v-1.63h-2.45l1.25.69s.26.13.26.26c0,.09-.04.17-.13.17-.26.09-.3.09-.39.3-.56,1.12-1.03,1.5-1.5,1.89h6.1v3.13c.43.04.56.04.86.04.47,0,.64-.04.64-.6v-5.84h.04ZM473.72,479.41v2.62c.56-.34,1.55-.99,2.15-2.62h-2.15ZM482.23,476.19c-.21.69-.39,1.12-.6,1.63h3.13v8.46c0,.86-.52,1.25-1.55,1.25h-.99l-.69-1.59v.3h-4.64v.34h-1.67v-3.74c-.17.13-.26.13-.39.21l-1.12-.86v5.24h-1.8v-9.66h3.18c-.17-.56-.43-1.12-.69-1.63h-3.01v-1.42h5.93v-1.25l1.89.13c.13,0,.34.04.34.17,0,.09-.09.17-.3.3v.6h5.93v1.42h-2.96v.09Z"></path>
      <path class="st13" d="M504.81,483.4h-5.58v2.02h5.58v-2.02ZM501.16,476.88l.99.21c.17.04.47.09.47.26,0,.13-.13.17-.34.3v.77h5.45v1.67h-5.45v1.63h4.42v5.8h-1.89v-.43h-5.58v.43h-1.76v-5.8h2.96v-4.81h-3.44v2.53c0,1.8-.17,2.88-.52,4.68-.26,1.33-.73,2.32-1.12,3.22l-1.76-.64c.56-1.07,1.55-2.96,1.55-6.87v-4.55h4.85v-1.67l2.1.13c.17,0,.34.09.34.26,0,.09-.13.17-.21.26-.09.04-.21.13-.21.17v.9h5.93v1.67h-6.79v-.13Z"></path>
      <path class="st13" d="M506.36,430.97h-11.94c-1.07,0-1.93-.86-1.93-1.93v-11.12c0-1.63-1.33-2.92-2.92-2.92h-37.02c-1.07,0-2.02.56-2.53,1.5l-6.23,11.17c-.39.69-.47,1.46-.26,2.23s.69,1.37,1.37,1.76c.69.39,1.46.47,2.23.26.77-.21,1.37-.73,1.76-1.37l4.81-8.67c.34-.6.99-.99,1.72-.99h29.29c1.07,0,1.93.86,1.93,1.93v11.12c0,1.63,1.33,2.92,2.92,2.92h9.71c.64,0,1.25.3,1.63.86.34.52.43,1.2.21,1.8l-1.85,4.77c-.3.73-.99,1.2-1.76,1.25-16.1.34-36.37.52-40.58-.21l-1.67-.3c-17.82-3.05-20.57-3.52-30.62-19.24-.56-.86-1.46-1.33-2.45-1.33H19.86c-1.07,0-1.93-.86-1.93-1.93v-42.51c0-1.07.86-1.93,1.93-1.93h18.64c1.76,0,2.96-1.2,2.96-2.96s-1.2-2.96-2.96-2.96H14.96c-1.59,0-2.96,1.37-2.96,2.96v109.59c0,1.67,1.25,2.88,2.96,2.88s2.96-1.2,2.96-2.88v-52.48c0-1.07.86-1.93,1.93-1.93h399.58c.64,0,1.25.34,1.63.86,10.48,15.76,15.72,16.66,33.11,19.62l1.67.3c4.98.86,27.35.69,44.96.21,1.2-.04,2.23-.77,2.66-1.85l5.37-13.7.3-.86.17-.94c0-.6-.17-1.2-.56-1.72-.6-.77-1.46-1.25-2.4-1.25"></path>
      <path class="st13" d="M71.65,487.48h-.52c-5.71,0-10.39-4.59-10.39-10.35v-24.52c0-1.72,1.29-2.58,2.53-2.58s2.58.86,2.58,2.58v24.52c0,2.83,2.4,5.28,5.32,5.28h.47c2.83,0,5.28-2.45,5.28-5.28v-24.52c0-1.72,1.29-2.58,2.58-2.58s2.58.86,2.58,2.58v24.52c-.09,5.75-4.72,10.35-10.44,10.35"></path>
      <path class="st13" d="M130.18,487.48h-.6c-.69,0-2.02-.17-2.88-2.15l-10.18-22.97v22.59c0,1.72-1.25,2.49-2.49,2.49s-2.62-.82-2.62-2.49v-32.21c0-1.42,1.03-2.66,2.71-2.66h.6c.64,0,1.93,0,2.71,1.85l10.18,22.97v-22.24c0-1.72,1.25-2.58,2.49-2.58s2.62.86,2.62,2.58v32.29c0,1.33-1.12,2.53-2.53,2.53"></path>
      <path class="st13" d="M172.56,459.44l-4.29,14.13h8.63l-4.34-14.13M183.13,487.48c-1.03,0-2.02-.52-2.45-1.8l-2.19-7.04h-11.81l-2.15,7.04c-.39,1.29-1.5,1.8-2.49,1.8-1.55,0-2.62-1.03-2.62-2.36,0-.21.04-.47.09-.86l10.13-32.16c.43-1.33,1.72-2.02,2.92-2.02,1.29,0,2.49.6,2.92,2.02l10.13,32.16c.04.39.09.64.09.82,0,1.42-1.03,2.4-2.58,2.4"></path>
      <path class="st13" d="M228.22,476.32c0-3.05-2.45-5.54-5.28-5.54h-5.37v11.34h5.37c2.96,0,5.28-2.45,5.28-5.32v-.47M222.94,455.45h-5.37v10.26h5.37c2.75,0,4.85-2.23,4.85-5.45,0-2.96-1.85-4.81-4.85-4.81M222.94,487.18h-7.94c-1.42,0-2.58-1.25-2.58-2.58v-31.69c0-1.33,1.12-2.58,2.58-2.58h7.94c5.8,0,9.96,4.21,9.96,9.92,0,3.13-1.29,6.05-3.78,7.82,2.49,1.85,4.21,5.02,4.21,8.2v.47c0,5.8-4.64,10.44-10.39,10.44"></path>
      <path class="st13" d="M264.46,487.48c-1.29,0-2.58-.82-2.58-2.49v-32.34c0-1.72,1.29-2.58,2.58-2.58s2.58.86,2.58,2.58v32.29c-.04,1.72-1.33,2.53-2.58,2.53"></path>
      <path class="st13" d="M315.48,487.48c-.86,0-1.76-.39-2.23-1.37l-7.52-15.5-3.78,5.5v8.85c0,1.72-1.29,2.49-2.58,2.49s-2.58-.82-2.58-2.49v-32.34c0-1.72,1.29-2.58,2.58-2.58s2.58.86,2.58,2.58v14.34l10.69-15.76c.52-.82,1.33-1.12,2.02-1.12,1.55,0,2.66,1.12,2.66,2.58,0,.52-.17,1.03-.43,1.42l-7.9,11.59,8.85,18.16c.17.43.26.82.26,1.16.04,1.37-1.07,2.49-2.62,2.49"></path>
      <path class="st13" d="M347.9,487.48c-1.29,0-2.58-.82-2.58-2.49v-32.34c0-1.72,1.29-2.58,2.58-2.58s2.58.86,2.58,2.58v32.29c0,1.72-1.29,2.53-2.58,2.53"></path>
    </g>
  </g>
</svg><style>@media (prefers-color-scheme: light) { :root { filter: none; } }
@media (prefers-color-scheme: dark) { :root { filter: none; } }
</style></svg>