<?xml version="1.0" encoding="UTF-8"?>
<svg id="Layer_2" data-name="Layer 2" xmlns="http://www.w3.org/2000/svg" viewBox="0 0 806.79 187.45">
  <defs>
    <style>
      .cls-1 {
        fill: #231f20;
        stroke-width: 0px;
      }
    </style>
  </defs>
  <g id="Layer_1-2" data-name="Layer 1">
    <g id="Layer_1-3" data-name="Layer 1">
      <g>
        <path class="cls-1" d="M690.54,178.54h-4.76v4.76h4.76v-4.76M693.36,176.11v10.84h-2.88v-1.05h-4.76v1.05h-2.71v-11.12h9.68c-.61-.61-1.94-1.88-2.93-4.32-.77-1.88-.83-3.32-.89-4.32h-1.38v-2.43h4.09c-.06.72-.06,1-.06,1.27,0,5.92,3.21,7.52,4.2,8.02l-2.38,2.05ZM676.38,173.95c0-.83.06-2.16-.28-3.6l2.05-.5c.28,1.27.44,2.49.44,3.76l-2.21.33ZM679.03,169.41h-3.49c-.06,2.05-.06,2.93-.06,5.03,1.38-.06,1.88-.06,3.54-.28v-4.76ZM687.06,167.81c-.22.17-.28.17-.28.22-.22,1.05-1.16,4.87-2.93,7.19l-1.44-.89v2.05q-.44.06-.89.06v7.3c0,2.93-1.83,3.26-3.93,3.32l-1.11-2.93c.28,0,.89.06,1.6.06.61,0,1.05-.44,1.05-1.44v-5.98c-.06,0-.77.06-.83.06v5.81h-2.05v-5.59c-.33,0-.44,0-.77.06-.06,1.44-.17,3.26-.61,5.7-.44,2.1-.77,2.99-1.27,4.04l-2.66-.83c1.6-3.26,2.05-5.15,2.1-8.8-.5,0-.61,0-.77.28,0,0-.28.28-.33.28-.17,0-.22-.17-.28-.72l-.17-2.38h1.6c0-2.43,0-5.09-.06-7.52h2.32c.5-.83.83-1.88,1-2.88l2.66.44c.55.06.61.22.61.28s0,.22-.33.33c-.28.06-.33.06-.44.22-.06.28-.33,1.05-.61,1.6h3.15v6.25c1.55-2.05,2.32-4.54,2.66-7.03l2.71.72c.22.06.5.17.5.44.06.11-.06.17-.22.28Z"/>
        <path class="cls-1" d="M721.47,177.6c.44,1,.77,1.6,1.16,2.16,1-.83,1.55-1.38,2.16-2.16h-3.32M726.17,173.18h-5.64c.06.28.22,1.16.28,1.83h5.37v-1.83ZM726.17,169.36h-5.86v1.6h5.81v-1.6h.06ZM717.6,173.18h-4.2v1.83h4.37c0-.83-.06-1.27-.17-1.83ZM717.43,169.36h-3.98v1.6h3.98c.06-.83.06-.89,0-1.6ZM729.83,185.85c-.89,1.44-2.21,1.6-2.49,1.6-.77,0-2.1-.61-3.04-1.38-.94-.77-1.83-1.66-2.32-2.21-2.77,1.55-5.15,2.49-10.68,3.21l-1.83-2.99c5.59-.22,8.24-1.27,10.79-2.66-.61-1.05-1.16-2.05-1.72-3.93h-7.86v-10.68h6.92c0-1,0-1.83.06-2.77l2.93.28c.44.06.61.06.61.28v.17c-.06.06-.5.28-.55.33-.17.06-.17.22-.17,1.83h8.63v10.68h-1.88l.77.83c.06.17.33.44.33.55,0,.22-.06.22-.55.22q-.28,0-.61.44c-1,1.05-2.16,2.05-2.71,2.49.83.89,1.94,1.88,2.88,1.88.89,0,1.27-1.38,1.66-2.88l2.38,1.83c-.5,1-1,1.99-1.55,2.88Z"/>
        <path class="cls-1" d="M758.98,181.47h-4.81v1.6h4.81v-1.6M753.56,168.8c.44.77.77,1.44,1.16,2.66h3.71c.5-.89.83-1.6,1.27-2.66h-6.14ZM764.13,174.01h-5.15v1.44c0,.28.17.44.55.44h1.38c.44,0,.61-.17.72-1.27l2.1.83c-.17,1.11-.33,2.88-2.16,2.88h-2.99c-1.55,0-2.05-.61-2.05-1.72v-2.66h-3.98l2.05,1.11c.06.06.44.22.44.44,0,.17-.06.28-.22.28-.44.17-.5.17-.61.5-.89,1.83-1.66,2.43-2.43,3.04h9.9v5.09c.72.06.89.06,1.38.06.77,0,1.05-.06,1.05-1v-9.46h0ZM749.02,174.01v4.26c.89-.55,2.49-1.6,3.49-4.26h-3.49ZM762.8,168.8c-.33,1.11-.61,1.83-1,2.66h5.09v13.72c0,1.38-.83,2.05-2.49,2.05h-1.6l-1.11-2.6v.5h-7.52v.55h-2.71v-6.09c-.28.22-.44.22-.61.33l-1.83-1.38v8.52h-2.93v-15.66h5.15c-.28-.89-.72-1.83-1.11-2.66h-4.87v-2.32h9.63v-2.05l3.04.22c.22,0,.55.06.55.28,0,.17-.17.28-.5.5v1h9.63v2.32h-4.81v.11h0Z"/>
        <path class="cls-1" d="M799.48,180.48h-9.07v3.26h9.07v-3.26M793.56,169.91l1.6.33c.28.06.77.17.77.44,0,.22-.22.28-.55.5v1.27h8.85v2.71h-8.85v2.66h7.19v9.41h-3.04v-.72h-9.07v.72h-2.88v-9.41h4.81v-7.8h-5.59v4.09c0,2.93-.28,4.65-.83,7.58-.44,2.16-1.16,3.76-1.83,5.2l-2.88-1.05c.89-1.72,2.49-4.81,2.49-11.12v-7.36h7.86v-2.71l3.43.22c.28,0,.55.17.55.44,0,.17-.22.28-.33.44-.17.06-.33.22-.33.28v1.44h9.63v2.71h-11.01v-.28Z"/>
        <path class="cls-1" d="M801.97,95.44h-19.36c-1.72,0-3.15-1.38-3.15-3.15v-18.04c0-2.66-2.16-4.76-4.76-4.76h-60.03c-1.72,0-3.26.89-4.09,2.43l-10.12,18.09c-.61,1.11-.77,2.38-.44,3.6s1.11,2.21,2.21,2.88c1.11.61,2.38.77,3.6.44,1.27-.33,2.21-1.16,2.88-2.21l7.8-14.05c.55-1,1.6-1.6,2.77-1.6h47.53c1.72,0,3.15,1.38,3.15,3.15v18.04c0,2.66,2.16,4.76,4.76,4.76h15.77c1.05,0,2.05.5,2.66,1.38.55.83.72,1.94.33,2.93l-2.99,7.75c-.5,1.16-1.6,1.94-2.88,2.05-26.11.55-58.98.83-65.84-.33l-2.71-.5c-28.94-4.92-33.36-5.7-49.68-31.2-.89-1.38-2.38-2.16-3.98-2.16H12.78c-1.72,0-3.15-1.38-3.15-3.15V12.78c0-1.72,1.38-3.15,3.15-3.15h30.21c2.88,0,4.81-1.94,4.81-4.81s-1.94-4.81-4.81-4.81H4.81C2.21,0,0,2.21,0,4.81v177.77c0,2.71,2.05,4.65,4.81,4.65s4.81-1.94,4.81-4.65v-85.09c0-1.72,1.38-3.15,3.15-3.15h648.22c1.05,0,2.05.55,2.66,1.38,16.99,25.56,25.51,27.06,53.72,31.81l2.71.5c8.08,1.38,44.37,1.11,72.92.33,1.94-.06,3.6-1.27,4.32-2.99l8.69-22.24.5-1.38.28-1.55c0-1-.28-1.94-.89-2.77-1-1.22-2.38-1.99-3.93-1.99"/>
        <path class="cls-1" d="M96.77,187.12h-.83c-9.24,0-16.87-7.47-16.87-16.76v-39.78c0-2.77,2.1-4.2,4.09-4.2,2.1,0,4.2,1.38,4.2,4.2v39.78c0,4.59,3.93,8.58,8.63,8.58h.77c4.59,0,8.58-3.98,8.58-8.58v-39.78c0-2.77,2.1-4.2,4.2-4.2s4.2,1.38,4.2,4.2v39.78c-.17,9.3-7.69,16.76-16.99,16.76"/>
        <path class="cls-1" d="M191.71,187.12h-1c-1.11,0-3.26-.28-4.65-3.49l-16.49-37.29v36.63c0,2.77-2.05,4.04-4.04,4.04-2.1,0-4.26-1.33-4.26-4.04v-52.23c0-2.32,1.66-4.32,4.37-4.32h1c1.05,0,3.15,0,4.37,2.99l16.49,37.29v-36.07c0-2.77,2.05-4.2,4.04-4.2s4.26,1.38,4.26,4.2v52.4c.06,2.16-1.77,4.09-4.09,4.09"/>
        <path class="cls-1" d="M260.48,141.64l-6.97,22.91h14l-7.03-22.91M277.63,187.12c-1.66,0-3.26-.83-3.98-2.93l-3.54-11.4h-19.14l-3.49,11.4c-.61,2.1-2.43,2.93-4.04,2.93-2.49,0-4.26-1.66-4.26-3.82,0-.33.06-.77.17-1.38l16.43-52.17c.72-2.16,2.77-3.26,4.76-3.26,2.1,0,4.04,1,4.76,3.26l16.43,52.17c.06.61.17,1.05.17,1.33-.11,2.27-1.77,3.87-4.26,3.87Z"/>
        <path class="cls-1" d="M350.78,169.03c0-4.92-3.98-8.96-8.58-8.96h-8.69v18.37h8.69c4.81,0,8.58-3.98,8.58-8.63v-.77M342.2,135.17h-8.69v16.65h8.69c4.48,0,7.86-3.6,7.86-8.85,0-4.81-2.99-7.8-7.86-7.8ZM342.2,186.62h-12.89c-2.32,0-4.2-2.05-4.2-4.2v-51.4c0-2.16,1.83-4.2,4.2-4.2h12.89c9.41,0,16.16,6.81,16.16,16.1,0,5.09-2.1,9.85-6.14,12.67,4.04,2.99,6.81,8.13,6.81,13.28v.77c.06,9.46-7.47,16.99-16.82,16.99Z"/>
        <path class="cls-1" d="M409.59,187.12c-2.1,0-4.2-1.33-4.2-4.04v-52.45c0-2.77,2.1-4.2,4.2-4.2s4.2,1.38,4.2,4.2v52.4c-.11,2.77-2.21,4.09-4.2,4.09"/>
        <path class="cls-1" d="M492.3,187.12c-1.38,0-2.88-.61-3.6-2.21l-12.17-25.17-6.14,8.91v14.33c0,2.77-2.1,4.04-4.2,4.04s-4.2-1.33-4.2-4.04v-52.45c0-2.77,2.1-4.2,4.2-4.2s4.2,1.38,4.2,4.2v23.29l17.37-25.56c.83-1.33,2.16-1.83,3.26-1.83,2.49,0,4.32,1.83,4.32,4.2,0,.83-.28,1.66-.72,2.32l-12.84,18.81,14.33,29.49c.28.72.44,1.33.44,1.88.06,2.16-1.72,3.98-4.26,3.98"/>
        <path class="cls-1" d="M544.92,187.12c-2.1,0-4.2-1.33-4.2-4.04v-52.45c0-2.77,2.1-4.2,4.2-4.2s4.2,1.38,4.2,4.2v52.4c0,2.77-2.1,4.09-4.2,4.09"/>
      </g>
    </g>
  </g>
</svg>