<?xml version="1.0" encoding="utf-8"?>
<!-- Generator: Adobe Illustrator 30.1.0, SVG Export Plug-In . SVG Version: 9.03 Build 0)  -->
<svg version="1.1" id="Layer_1" xmlns="http://www.w3.org/2000/svg" xmlns:xlink="http://www.w3.org/1999/xlink" x="0px" y="0px"
	 viewBox="0 0 160 160" style="enable-background:new 0 0 160 160;" xml:space="preserve">
<g>
	<path d="M90.66,18.65v24.28H68.79v10.77h23.64v24.76H68.79v9.17h21.87v24.76H68.79v9.81c10.83-2.25,18.33-3.91,22.51-4.98
		l0.96,24.6c-27.66,7.18-55.37,11.63-83.14,13.35l-2.89-26.21l9.49-0.32V82.17h23v44.54l5.79-0.64v-47.6H12.34V53.71h32.16V42.93
		h-8.04c-0.96,1.18-3.81,4.61-8.52,10.29L8.16,38.27C17.6,26.16,25.32,13.4,31.32,0l24.44,6.43c-1.29,3.75-2.9,7.83-4.82,12.22
		H90.66z M92.91,10.29h60.78v106.77c-0.21,7.4-2.95,13.78-8.2,19.14c-5.25,5.36-11.52,8.25-18.81,8.68h-7.88l-3.22-20.1V160H92.91
		V10.29z M115.58,35.86v83.62h9.49c2.04-0.21,3.16-1.34,3.38-3.38V35.86H115.58z"/>
</g>
</svg>
