<?xml version="1.0" encoding="utf-8"?>
<!-- Generator: Adobe Illustrator 30.1.0, SVG Export Plug-In . SVG Version: 9.03 Build 0)  -->
<svg version="1.1" id="Layer_1" xmlns="http://www.w3.org/2000/svg" xmlns:xlink="http://www.w3.org/1999/xlink" x="0px" y="0px"
	 viewBox="0 0 160 160" style="enable-background:new 0 0 160 160;" xml:space="preserve">
<g>
	<path d="M88.45,14.8v19.27H71.09v8.55h18.76v19.65H71.09v7.27h17.35v19.65H71.09v7.78c8.59-1.79,14.55-3.1,17.87-3.96l0.76,19.52
		c-21.95,5.7-43.94,9.23-65.97,10.59l-2.3-20.8l7.53-0.26V65.2h18.25v35.35l4.59-0.51V62.27H26.31V42.62h25.52v-8.55h-6.38
		c-0.77,0.94-3.02,3.66-6.76,8.17l-15.7-11.87C30.47,20.76,36.6,10.63,41.36,0l19.4,5.1c-1.02,2.98-2.3,6.21-3.83,9.7H88.45z
		 M90.23,8.17h48.23v84.73c-0.17,5.87-2.34,10.93-6.51,15.18c-4.17,4.26-9.14,6.55-14.93,6.89h-6.25l-2.55-15.95v27.95H90.23V8.17z
		 M108.23,28.45v66.35h7.53c1.62-0.17,2.51-1.06,2.68-2.68V28.45H108.23z"/>
</g>
<g>
	<path d="M22.55,147.31c0-1.72,0.24-3.36,0.73-4.9c0.49-1.54,1.2-2.89,2.14-4.05c0.94-1.16,2.11-2.08,3.5-2.75
		c1.39-0.68,3-1.02,4.81-1.02c1.81,0,3.42,0.34,4.81,1.02c1.39,0.68,2.56,1.6,3.5,2.75c0.94,1.16,1.65,2.51,2.14,4.05
		c0.49,1.54,0.73,3.17,0.73,4.9c0,1.72-0.24,3.36-0.73,4.9c-0.49,1.54-1.2,2.89-2.14,4.05c-0.94,1.16-2.11,2.07-3.5,2.74
		c-1.39,0.67-3,1-4.81,1c-1.81,0-3.42-0.34-4.81-1c-1.39-0.67-2.56-1.58-3.5-2.74c-0.94-1.16-1.66-2.51-2.14-4.05
		C22.79,150.67,22.55,149.04,22.55,147.31z M23.23,147.31c0.02,1.75,0.28,3.36,0.76,4.83s1.18,2.74,2.08,3.81
		c0.9,1.07,1.99,1.9,3.28,2.5c1.29,0.6,2.75,0.9,4.39,0.9c1.63,0,3.1-0.3,4.39-0.9s2.39-1.43,3.28-2.5
		c0.89-1.07,1.59-2.34,2.07-3.81c0.49-1.47,0.74-3.08,0.77-4.83c-0.02-1.75-0.28-3.36-0.77-4.83c-0.49-1.47-1.18-2.74-2.07-3.81
		c-0.9-1.07-1.99-1.9-3.28-2.5c-1.29-0.6-2.76-0.9-4.39-0.9c-1.63,0-3.1,0.3-4.39,0.9c-1.29,0.6-2.39,1.43-3.28,2.5
		c-0.9,1.07-1.59,2.34-2.08,3.81C23.5,143.96,23.25,145.57,23.23,147.31z"/>
	<path d="M47.82,159.46v-24.29h9.93c2.54,0,4.4,0.51,5.58,1.51c1.18,1.01,1.79,2.58,1.84,4.71c0.05,1.63-0.39,2.99-1.29,4.07
		c-0.91,1.08-2.21,1.81-3.91,2.19v0.07c1.02,0.14,1.85,0.38,2.48,0.73c0.63,0.35,1.12,0.81,1.46,1.38c0.34,0.57,0.57,1.24,0.68,2.01
		c0.11,0.77,0.17,1.64,0.17,2.62c0,0.34,0.01,0.77,0.03,1.28c0.02,0.51,0.06,1.02,0.1,1.51c0.05,0.5,0.1,0.95,0.17,1.36
		c0.07,0.41,0.16,0.69,0.27,0.85h-0.75c-0.11-0.25-0.2-0.58-0.27-1c-0.07-0.42-0.12-0.87-0.15-1.34c-0.03-0.48-0.06-0.96-0.07-1.45
		c-0.01-0.49-0.02-0.92-0.02-1.31c0-1-0.07-1.89-0.22-2.67c-0.15-0.78-0.45-1.44-0.9-1.97c-0.45-0.53-1.1-0.94-1.94-1.22
		c-0.84-0.28-1.96-0.43-3.37-0.43H48.5v11.4H47.82z M57.58,147.38c0.91,0,1.77-0.11,2.6-0.34c0.83-0.23,1.56-0.59,2.19-1.09
		c0.63-0.5,1.14-1.13,1.53-1.89c0.39-0.76,0.58-1.67,0.58-2.74c-0.02-1.72-0.54-3.07-1.56-4.03c-1.02-0.96-2.69-1.44-5-1.44H48.5
		v11.53H57.58z"/>
	<path d="M67.85,147.31c0-1.72,0.24-3.36,0.73-4.9c0.49-1.54,1.2-2.89,2.14-4.05c0.94-1.16,2.11-2.08,3.5-2.75
		c1.39-0.68,3-1.02,4.81-1.02c1.81,0,3.42,0.34,4.81,1.02s2.56,1.6,3.5,2.75c0.94,1.16,1.66,2.51,2.14,4.05
		c0.49,1.54,0.73,3.17,0.73,4.9c0,1.72-0.24,3.36-0.73,4.9c-0.49,1.54-1.2,2.89-2.14,4.05c-0.94,1.16-2.11,2.07-3.5,2.74
		c-1.39,0.67-3,1-4.81,1c-1.81,0-3.42-0.34-4.81-1c-1.39-0.67-2.56-1.58-3.5-2.74c-0.94-1.16-1.66-2.51-2.14-4.05
		C68.09,150.67,67.85,149.04,67.85,147.31z M68.53,147.31c0.02,1.75,0.28,3.36,0.76,4.83s1.18,2.74,2.08,3.81
		c0.9,1.07,1.99,1.9,3.28,2.5c1.29,0.6,2.75,0.9,4.39,0.9c1.63,0,3.09-0.3,4.39-0.9c1.29-0.6,2.39-1.43,3.28-2.5
		c0.9-1.07,1.59-2.34,2.08-3.81c0.49-1.47,0.74-3.08,0.76-4.83c-0.02-1.75-0.28-3.36-0.76-4.83c-0.49-1.47-1.18-2.74-2.08-3.81
		c-0.89-1.07-1.99-1.9-3.28-2.5c-1.29-0.6-2.75-0.9-4.39-0.9c-1.63,0-3.1,0.3-4.39,0.9c-1.29,0.6-2.39,1.43-3.28,2.5
		c-0.9,1.07-1.59,2.34-2.08,3.81C68.81,143.96,68.55,145.57,68.53,147.31z"/>
	<path d="M108.65,138.83c-0.42-0.85-0.98-1.54-1.67-2.07c-0.69-0.53-1.51-0.91-2.47-1.14c-0.95-0.23-1.97-0.34-3.06-0.34
		c-0.84,0-1.71,0.09-2.62,0.26c-0.91,0.17-1.73,0.47-2.47,0.9c-0.74,0.43-1.34,1-1.82,1.72s-0.71,1.61-0.71,2.7
		c0,1.09,0.24,1.96,0.73,2.62s1.12,1.19,1.91,1.6c0.78,0.41,1.67,0.72,2.67,0.95c1,0.23,2.02,0.46,3.06,0.71
		c1.13,0.29,2.21,0.58,3.22,0.85c1.01,0.27,1.89,0.63,2.64,1.09c0.75,0.45,1.34,1.06,1.78,1.8c0.44,0.75,0.66,1.76,0.66,3.03
		c0,1.16-0.25,2.14-0.75,2.96c-0.5,0.82-1.16,1.49-1.97,2.02c-0.82,0.53-1.73,0.92-2.76,1.16c-1.02,0.24-2.05,0.36-3.09,0.36
		c-1.38,0-2.66-0.16-3.83-0.48c-1.17-0.32-2.18-0.82-3.03-1.51c-0.85-0.69-1.51-1.58-1.97-2.67c-0.47-1.09-0.69-2.4-0.66-3.95h0.68
		c0,1.45,0.22,2.68,0.65,3.69c0.43,1.01,1.04,1.83,1.82,2.47c0.78,0.64,1.71,1.1,2.79,1.38c1.08,0.28,2.26,0.43,3.55,0.43
		c0.95,0,1.9-0.11,2.84-0.32c0.94-0.22,1.78-0.56,2.53-1.04c0.75-0.48,1.36-1.09,1.82-1.84c0.46-0.75,0.7-1.64,0.7-2.69
		c0-1.22-0.27-2.19-0.8-2.91c-0.53-0.71-1.21-1.28-2.04-1.7c-0.83-0.42-1.75-0.74-2.75-0.95c-1.01-0.22-1.98-0.44-2.91-0.66
		c-0.98-0.23-1.95-0.46-2.93-0.71c-0.98-0.25-1.85-0.6-2.64-1.04c-0.78-0.44-1.41-1.03-1.89-1.77c-0.48-0.74-0.71-1.69-0.71-2.88
		c0-1.2,0.25-2.2,0.75-3.01c0.5-0.8,1.14-1.44,1.94-1.92c0.79-0.48,1.68-0.82,2.67-1.02c0.99-0.2,1.97-0.31,2.94-0.31
		c1.2,0,2.31,0.13,3.32,0.39c1.01,0.26,1.89,0.68,2.65,1.26c0.76,0.58,1.37,1.34,1.82,2.28c0.45,0.94,0.71,2.09,0.78,3.45h-0.68
		C109.3,140.73,109.07,139.68,108.65,138.83z"/>
	<path d="M114.59,159.46h-0.68v-24.29h0.68v11.29h17.01v-11.29h0.68v24.29h-0.68v-12.31h-17.01V159.46z"/>
	<path d="M136.63,135.17v24.29h-0.68v-24.29H136.63z"/>
</g>
</svg>
